<svg width="45" height="44" viewBox="0 0 45 44" fill="none" xmlns="http://www.w3.org/2000/svg">
<path d="M9.79729 16.3096V30.8132M17.9556 16.3096V30.8132M27.0203 16.3096V30.8132M35.1786 16.3096V30.8132M6.17139 33.7139V35.1642C6.17139 36.1797 6.17139 36.6873 6.36898 37.0751C6.54281 37.4163 6.82015 37.6937 7.16128 37.8674C7.54908 38.065 8.05676 38.065 9.07211 38.065H35.9038C36.9192 38.065 37.4268 38.065 37.8146 37.8674C38.1558 37.6937 38.433 37.4163 38.6069 37.0751C38.8045 36.6873 38.8045 36.1797 38.8045 35.1642V33.7139C38.8045 32.6986 38.8045 32.1908 38.6069 31.803C38.433 31.462 38.1558 31.1846 37.8146 31.0108C37.4268 30.8132 36.9192 30.8132 35.9038 30.8132H9.07211C8.05676 30.8132 7.54908 30.8132 7.16128 31.0108C6.82015 31.1846 6.54281 31.462 6.36898 31.803C6.17139 32.1908 6.17139 32.6986 6.17139 33.7139ZM21.8587 5.57174L8.44285 8.55305C7.63235 8.73314 7.2271 8.82321 6.92459 9.04113C6.65778 9.23335 6.44828 9.49455 6.31851 9.79671C6.17139 10.1393 6.17139 10.5544 6.17139 11.3847V13.4089C6.17139 14.4242 6.17139 14.9319 6.36898 15.3197C6.54281 15.6608 6.82015 15.9382 7.16128 16.112C7.54908 16.3096 8.05676 16.3096 9.07211 16.3096H35.9038C36.9192 16.3096 37.4268 16.3096 37.8146 16.112C38.1558 15.9382 38.433 15.6608 38.6069 15.3197C38.8045 14.9319 38.8045 14.4242 38.8045 13.4089V11.3847C38.8045 10.5544 38.8045 10.1393 38.6573 9.79671C38.5276 9.49455 38.3181 9.23335 38.0512 9.04113C37.7488 8.82321 37.3436 8.73314 36.533 8.55305L23.1172 5.57174C22.8824 5.51956 22.765 5.49348 22.6464 5.48307C22.5409 5.47382 22.435 5.47382 22.3295 5.48307C22.2109 5.49348 22.0934 5.51956 21.8587 5.57174Z" stroke="white" stroke-width="1.81295" stroke-linecap="round" stroke-linejoin="round"/>
</svg>
