<svg width="39" height="34" viewBox="0 0 39 34" fill="none" xmlns="http://www.w3.org/2000/svg">
<path d="M35.9927 5.87073H26.4747V3.15131C26.4747 2.43007 26.1882 1.73838 25.6782 1.22839C25.1682 0.718395 24.4765 0.431885 23.7552 0.431885H15.597C14.8757 0.431885 14.184 0.718395 13.674 1.22839C13.1641 1.73838 12.8775 2.43007 12.8775 3.15131V5.87073H3.35956C2.63832 5.87073 1.94663 6.15724 1.43664 6.66724C0.926647 7.17723 0.640137 7.86892 0.640137 8.59016V30.3456C0.640137 31.0668 0.926647 31.7585 1.43664 32.2685C1.94663 32.7785 2.63832 33.065 3.35956 33.065H35.9927C36.7139 33.065 37.4056 32.7785 37.9156 32.2685C38.4256 31.7585 38.7121 31.0668 38.7121 30.3456V8.59016C38.7121 7.86892 38.4256 7.17723 37.9156 6.66724C37.4056 6.15724 36.7139 5.87073 35.9927 5.87073ZM15.597 3.15131H23.7552V5.87073H15.597V3.15131ZM35.9927 8.59016V20.8276H3.35956V8.59016H35.9927ZM3.35956 30.3456V23.547H35.9927V30.3456H3.35956Z" fill="white"/>
</svg>
