<svg width="38" height="37" viewBox="0 0 38 37" fill="none" xmlns="http://www.w3.org/2000/svg">
<path d="M37.26 34.1341L30.9025 16.3585C30.456 15.1891 29.4566 14.4661 28.3084 14.4661C27.1602 14.4661 26.1822 15.1891 25.6931 16.401L19.3569 34.1341C19.0592 34.9633 19.4844 35.8776 20.3137 36.1753C21.1429 36.473 22.0572 36.0477 22.3549 35.2185L23.6732 31.54H32.9224L34.2407 35.2185C34.4746 35.8776 35.0912 36.2816 35.7504 36.2816C35.9205 36.2816 36.1118 36.2603 36.2819 36.1966C37.1112 35.8989 37.5364 34.9846 37.2387 34.1553L37.26 34.1341ZM24.8426 28.3294L28.3297 18.5698L31.8168 28.3294H24.8426ZM19.4206 9.63952C14.6153 17.2303 10.2777 21.823 5.00457 24.8848C4.74942 25.0337 4.47301 25.0975 4.21785 25.0975C3.66502 25.0975 3.13346 24.821 2.83578 24.3107C2.38927 23.5453 2.64442 22.5672 3.40987 22.142C7.87501 19.5479 11.5322 15.827 15.6359 9.66078H2.26169C1.38992 9.66078 0.666992 8.93785 0.666992 8.06609C0.666992 7.19432 1.38992 6.47139 2.26169 6.47139H10.2352V2.26139C10.2352 1.38962 10.9581 0.666687 11.8299 0.666687C12.7016 0.666687 13.4246 1.38962 13.4246 2.26139V6.47139H21.3981C22.2698 6.47139 22.9928 7.19432 22.9928 8.06609C22.9928 8.93785 22.2698 9.66078 21.3981 9.66078H19.3994L19.4206 9.63952ZM19.5057 25.0975C19.2293 25.0975 18.9529 25.0337 18.6977 24.8848C17.3156 24.0769 15.9761 23.1838 14.7216 22.2483C14.0199 21.7167 13.8711 20.7174 14.4027 20.0157C14.9342 19.314 15.9336 19.1652 16.6352 19.6968C17.7834 20.5685 19.0379 21.3765 20.3137 22.1207C21.0791 22.5672 21.3343 23.5453 20.8878 24.3107C20.5901 24.821 20.0585 25.0975 19.5057 25.0975Z" fill="#42794A"/>
</svg>
