<svg width="1000" height="200" viewBox="0 0 1000 200" fill="none" xmlns="http://www.w3.org/2000/svg">
<rect x="0.5" y="0.5" width="489" height="199" rx="15.5" stroke="#EEEEEE"/>
<path d="M38.748 31.918C39.1773 32.142 39.5133 32.45 39.756 32.842C39.9987 33.234 40.12 33.6867 40.12 34.2C40.12 35.0027 39.8353 35.67 39.266 36.202C38.6967 36.734 38.0013 37 37.18 37H32.98V27.2H36.872C37.6747 27.2 38.3513 27.4613 38.902 27.984C39.462 28.4973 39.742 29.1413 39.742 29.916C39.742 30.7653 39.4107 31.4327 38.748 31.918ZM36.872 28.712H34.59V31.288H36.872C37.2267 31.288 37.5253 31.1667 37.768 30.924C38.0107 30.672 38.132 30.364 38.132 30C38.132 29.636 38.0107 29.3327 37.768 29.09C37.5253 28.838 37.2267 28.712 36.872 28.712ZM37.18 35.488C37.5533 35.488 37.866 35.3573 38.118 35.096C38.3793 34.8253 38.51 34.4987 38.51 34.116C38.51 33.7333 38.3793 33.4113 38.118 33.15C37.866 32.8793 37.5533 32.744 37.18 32.744H34.59V35.488H37.18ZM49.4089 36.258C48.7182 36.874 47.8269 37.182 46.7349 37.182C45.6429 37.182 44.7516 36.874 44.0609 36.258C43.3702 35.6327 43.0249 34.7973 43.0249 33.752V27.2H44.6349V33.654C44.6349 34.2513 44.8076 34.7273 45.1529 35.082C45.5076 35.4367 46.0349 35.614 46.7349 35.614C47.4349 35.614 47.9576 35.4367 48.3029 35.082C48.6576 34.7273 48.8349 34.2513 48.8349 33.654V27.2H50.4449V33.752C50.4449 34.7973 50.0996 35.6327 49.4089 36.258ZM57.2387 37.182C56.2961 37.182 55.4934 36.9673 54.8307 36.538C54.1774 36.1087 53.7201 35.5207 53.4587 34.774L54.8447 33.962C55.2367 35.0633 56.0487 35.614 57.2807 35.614C57.8874 35.614 58.3401 35.4973 58.6387 35.264C58.9467 35.0213 59.1007 34.7087 59.1007 34.326C59.1007 33.9247 58.9374 33.6213 58.6107 33.416C58.2841 33.2013 57.7054 32.968 56.8747 32.716C56.4081 32.576 56.0301 32.4453 55.7407 32.324C55.4514 32.2027 55.1434 32.0347 54.8167 31.82C54.4994 31.596 54.2614 31.3207 54.1027 30.994C53.9441 30.6673 53.8647 30.2847 53.8647 29.846C53.8647 28.978 54.1727 28.292 54.7887 27.788C55.4047 27.2747 56.1467 27.018 57.0147 27.018C57.7987 27.018 58.4847 27.2093 59.0727 27.592C59.6607 27.9747 60.1134 28.502 60.4307 29.174L59.0727 29.958C58.6621 29.0433 57.9761 28.586 57.0147 28.586C56.5481 28.586 56.1747 28.698 55.8947 28.922C55.6147 29.1367 55.4747 29.4307 55.4747 29.804C55.4747 30.168 55.6147 30.4573 55.8947 30.672C56.1841 30.8773 56.7021 31.0967 57.4487 31.33C57.8221 31.4513 58.0927 31.5447 58.2607 31.61C58.4381 31.666 58.6807 31.7593 58.9887 31.89C59.3061 32.0207 59.5441 32.1513 59.7027 32.282C59.8614 32.4127 60.0294 32.576 60.2067 32.772C60.3934 32.968 60.5241 33.192 60.5987 33.444C60.6734 33.696 60.7107 33.9807 60.7107 34.298C60.7107 35.1847 60.3887 35.8893 59.7447 36.412C59.1101 36.9253 58.2747 37.182 57.2387 37.182ZM63.7095 27.2H65.3195V37H63.7095V27.2ZM74.8378 27.2H76.4478V37H75.1878L70.5678 30.35V37H68.9578V27.2H70.2178L74.8378 33.85V27.2ZM81.6951 35.46H86.0351V37H80.0851V27.2H85.9651V28.74H81.6951V31.288H85.6151V32.814H81.6951V35.46ZM92.4509 37.182C91.5082 37.182 90.7056 36.9673 90.0429 36.538C89.3896 36.1087 88.9322 35.5207 88.6709 34.774L90.0569 33.962C90.4489 35.0633 91.2609 35.614 92.4929 35.614C93.0996 35.614 93.5522 35.4973 93.8509 35.264C94.1589 35.0213 94.3129 34.7087 94.3129 34.326C94.3129 33.9247 94.1496 33.6213 93.8229 33.416C93.4962 33.2013 92.9176 32.968 92.0869 32.716C91.6202 32.576 91.2422 32.4453 90.9529 32.324C90.6636 32.2027 90.3556 32.0347 90.0289 31.82C89.7116 31.596 89.4736 31.3207 89.3149 30.994C89.1562 30.6673 89.0769 30.2847 89.0769 29.846C89.0769 28.978 89.3849 28.292 90.0009 27.788C90.6169 27.2747 91.3589 27.018 92.2269 27.018C93.0109 27.018 93.6969 27.2093 94.2849 27.592C94.8729 27.9747 95.3256 28.502 95.6429 29.174L94.2849 29.958C93.8742 29.0433 93.1882 28.586 92.2269 28.586C91.7602 28.586 91.3869 28.698 91.1069 28.922C90.8269 29.1367 90.6869 29.4307 90.6869 29.804C90.6869 30.168 90.8269 30.4573 91.1069 30.672C91.3962 30.8773 91.9142 31.0967 92.6609 31.33C93.0342 31.4513 93.3049 31.5447 93.4729 31.61C93.6502 31.666 93.8929 31.7593 94.2009 31.89C94.5182 32.0207 94.7562 32.1513 94.9149 32.282C95.0736 32.4127 95.2416 32.576 95.4189 32.772C95.6056 32.968 95.7362 33.192 95.8109 33.444C95.8856 33.696 95.9229 33.9807 95.9229 34.298C95.9229 35.1847 95.6009 35.8893 94.9569 36.412C94.3222 36.9253 93.4869 37.182 92.4509 37.182ZM101.938 37.182C100.995 37.182 100.192 36.9673 99.5295 36.538C98.8762 36.1087 98.4189 35.5207 98.1575 34.774L99.5435 33.962C99.9355 35.0633 100.748 35.614 101.98 35.614C102.586 35.614 103.039 35.4973 103.338 35.264C103.646 35.0213 103.8 34.7087 103.8 34.326C103.8 33.9247 103.636 33.6213 103.31 33.416C102.983 33.2013 102.404 32.968 101.574 32.716C101.107 32.576 100.729 32.4453 100.44 32.324C100.15 32.2027 99.8422 32.0347 99.5155 31.82C99.1982 31.596 98.9602 31.3207 98.8015 30.994C98.6429 30.6673 98.5635 30.2847 98.5635 29.846C98.5635 28.978 98.8715 28.292 99.4875 27.788C100.104 27.2747 100.846 27.018 101.714 27.018C102.498 27.018 103.184 27.2093 103.772 27.592C104.36 27.9747 104.812 28.502 105.13 29.174L103.772 29.958C103.361 29.0433 102.675 28.586 101.714 28.586C101.247 28.586 100.874 28.698 100.594 28.922C100.314 29.1367 100.174 29.4307 100.174 29.804C100.174 30.168 100.314 30.4573 100.594 30.672C100.883 30.8773 101.401 31.0967 102.148 31.33C102.521 31.4513 102.792 31.5447 102.96 31.61C103.137 31.666 103.38 31.7593 103.688 31.89C104.005 32.0207 104.243 32.1513 104.402 32.282C104.56 32.4127 104.728 32.576 104.906 32.772C105.092 32.968 105.223 33.192 105.298 33.444C105.372 33.696 105.41 33.9807 105.41 34.298C105.41 35.1847 105.088 35.8893 104.444 36.412C103.809 36.9253 102.974 37.182 101.938 37.182ZM116.932 37.182C115.99 37.182 115.187 36.9673 114.524 36.538C113.871 36.1087 113.414 35.5207 113.152 34.774L114.538 33.962C114.93 35.0633 115.742 35.614 116.974 35.614C117.581 35.614 118.034 35.4973 118.332 35.264C118.64 35.0213 118.794 34.7087 118.794 34.326C118.794 33.9247 118.631 33.6213 118.304 33.416C117.978 33.2013 117.399 32.968 116.568 32.716C116.102 32.576 115.724 32.4453 115.434 32.324C115.145 32.2027 114.837 32.0347 114.51 31.82C114.193 31.596 113.955 31.3207 113.796 30.994C113.638 30.6673 113.558 30.2847 113.558 29.846C113.558 28.978 113.866 28.292 114.482 27.788C115.098 27.2747 115.84 27.018 116.708 27.018C117.492 27.018 118.178 27.2093 118.766 27.592C119.354 27.9747 119.807 28.502 120.124 29.174L118.766 29.958C118.356 29.0433 117.67 28.586 116.708 28.586C116.242 28.586 115.868 28.698 115.588 28.922C115.308 29.1367 115.168 29.4307 115.168 29.804C115.168 30.168 115.308 30.4573 115.588 30.672C115.878 30.8773 116.396 31.0967 117.142 31.33C117.516 31.4513 117.786 31.5447 117.954 31.61C118.132 31.666 118.374 31.7593 118.682 31.89C119 32.0207 119.238 32.1513 119.396 32.282C119.555 32.4127 119.723 32.576 119.9 32.772C120.087 32.968 120.218 33.192 120.292 33.444C120.367 33.696 120.404 33.9807 120.404 34.298C120.404 35.1847 120.082 35.8893 119.438 36.412C118.804 36.9253 117.968 37.182 116.932 37.182ZM125.013 35.46H129.353V37H123.403V27.2H129.283V28.74H125.013V31.288H128.933V32.814H125.013V35.46ZM138.093 37L136.021 33.43H134.117V37H132.507V27.2H136.427C137.304 27.2 138.046 27.508 138.653 28.124C139.269 28.7307 139.577 29.4727 139.577 30.35C139.577 30.9753 139.395 31.5493 139.031 32.072C138.676 32.5853 138.21 32.9587 137.631 33.192L139.857 37H138.093ZM134.117 28.712V31.988H136.427C136.856 31.988 137.22 31.8293 137.519 31.512C137.818 31.1947 137.967 30.8073 137.967 30.35C137.967 29.8927 137.818 29.5053 137.519 29.188C137.22 28.8707 136.856 28.712 136.427 28.712H134.117ZM145.128 37L141.726 27.2H143.49L146.094 35.054L148.712 27.2H150.462L147.06 37H145.128ZM153.189 27.2H154.799V37H153.189V27.2ZM163.071 37.182C161.597 37.182 160.374 36.6967 159.403 35.726C158.433 34.746 157.947 33.5373 157.947 32.1C157.947 30.6627 158.433 29.4587 159.403 28.488C160.374 27.508 161.597 27.018 163.071 27.018C163.958 27.018 164.775 27.228 165.521 27.648C166.277 28.068 166.865 28.6373 167.285 29.356L165.885 30.168C165.624 29.6827 165.241 29.3 164.737 29.02C164.243 28.7307 163.687 28.586 163.071 28.586C162.026 28.586 161.177 28.9173 160.523 29.58C159.879 30.2427 159.557 31.0827 159.557 32.1C159.557 33.1173 159.879 33.9573 160.523 34.62C161.177 35.2827 162.026 35.614 163.071 35.614C163.687 35.614 164.247 35.474 164.751 35.194C165.255 34.9047 165.633 34.5173 165.885 34.032L167.285 34.83C166.875 35.5487 166.291 36.1227 165.535 36.552C164.789 36.972 163.967 37.182 163.071 37.182ZM171.913 35.46H176.253V37H170.303V27.2H176.183V28.74H171.913V31.288H175.833V32.814H171.913V35.46ZM182.669 37.182C181.726 37.182 180.924 36.9673 180.261 36.538C179.608 36.1087 179.15 35.5207 178.889 34.774L180.275 33.962C180.667 35.0633 181.479 35.614 182.711 35.614C183.318 35.614 183.77 35.4973 184.069 35.264C184.377 35.0213 184.531 34.7087 184.531 34.326C184.531 33.9247 184.368 33.6213 184.041 33.416C183.714 33.2013 183.136 32.968 182.305 32.716C181.838 32.576 181.46 32.4453 181.171 32.324C180.882 32.2027 180.574 32.0347 180.247 31.82C179.93 31.596 179.692 31.3207 179.533 30.994C179.374 30.6673 179.295 30.2847 179.295 29.846C179.295 28.978 179.603 28.292 180.219 27.788C180.835 27.2747 181.577 27.018 182.445 27.018C183.229 27.018 183.915 27.2093 184.503 27.592C185.091 27.9747 185.544 28.502 185.861 29.174L184.503 29.958C184.092 29.0433 183.406 28.586 182.445 28.586C181.978 28.586 181.605 28.698 181.325 28.922C181.045 29.1367 180.905 29.4307 180.905 29.804C180.905 30.168 181.045 30.4573 181.325 30.672C181.614 30.8773 182.132 31.0967 182.879 31.33C183.252 31.4513 183.523 31.5447 183.691 31.61C183.868 31.666 184.111 31.7593 184.419 31.89C184.736 32.0207 184.974 32.1513 185.133 32.282C185.292 32.4127 185.46 32.576 185.637 32.772C185.824 32.968 185.954 33.192 186.029 33.444C186.104 33.696 186.141 33.9807 186.141 34.298C186.141 35.1847 185.819 35.8893 185.175 36.412C184.54 36.9253 183.705 37.182 182.669 37.182Z" fill="#999999"/>
<g filter="url(#filter0_d_2535_1013)">
<rect x="40" y="56" width="80" height="80" rx="16" fill="white"/>
<path d="M92.9518 116.167H67.6599C65.3659 116.167 63.5 114.372 63.5 112.165V110.302C63.5 108.095 65.3659 106.3 67.6599 106.3H72.8425H74.0073H86.6036H87.7686H92.9518C95.2452 106.3 97.1111 108.095 97.1111 110.302V112.165C97.1111 114.372 95.2452 116.167 92.9518 116.167ZM67.6599 107.418C67.2617 107.418 66.8813 107.493 66.5333 107.63C66.079 107.808 65.6799 108.091 65.3685 108.447C64.9296 108.949 64.6648 109.596 64.6648 110.302V112.165C64.6648 113.311 65.3631 114.304 66.3716 114.768C66.762 114.948 67.199 115.049 67.6599 115.049H92.9518C93.4124 115.049 93.8492 114.948 94.2395 114.769C95.2478 114.304 95.9462 113.311 95.9462 112.165V110.302C95.9462 109.596 95.6814 108.949 95.2426 108.447C94.9312 108.091 94.532 107.808 94.0777 107.629C93.7299 107.493 93.3497 107.418 92.9518 107.418H87.7686H86.6036H74.0073H72.8425H67.6599Z" fill="#42794A"/>
<path fill-rule="evenodd" clip-rule="evenodd" d="M87.7686 80.5351V79.8351C87.7686 77.6284 85.9027 75.8333 83.6092 75.8333H77.0024C74.7084 75.8333 72.8425 77.6284 72.8425 79.8351V80.5351H74.0073V79.8351C74.0073 79.6933 74.018 79.554 74.0386 79.4176C74.2494 78.0249 75.4983 76.9508 77.0024 76.9508H83.6092C85.1127 76.9508 86.3616 78.0249 86.5723 79.4176C86.593 79.554 86.6036 79.6933 86.6036 79.8351V80.5351H87.7686ZM87.7686 106.3H86.6036V107.418H87.7686V106.3ZM72.8425 106.3V107.418H74.0073V106.3H72.8425Z" fill="#42794A"/>
<path fill-rule="evenodd" clip-rule="evenodd" d="M69.5284 116.167H91.0832C92.3443 116.167 93.4761 115.624 94.2395 114.769C93.8492 114.948 93.4124 115.049 92.9518 115.049H91.0832H69.5284H67.6599C67.199 115.049 66.762 114.948 66.3716 114.768C67.1351 115.624 68.267 116.167 69.5284 116.167ZM95.2426 83.4194V108.447C94.9312 108.091 94.532 107.808 94.0777 107.629V83.4194C94.0777 81.8297 92.7339 80.5351 91.0832 80.5351H87.7686H86.6036V79.8351C86.6036 79.6933 86.593 79.554 86.5723 79.4176H91.0832C93.3767 79.4176 95.2426 81.2128 95.2426 83.4194ZM69.5284 79.4176H74.0386C74.018 79.554 74.0073 79.6933 74.0073 79.8351V80.5351H72.8425H69.5284C67.8771 80.5351 66.5333 81.8297 66.5333 83.4194V107.63C66.079 107.808 65.6799 108.091 65.3685 108.447V83.4194C65.3685 81.2128 67.2344 79.4176 69.5284 79.4176Z" fill="#42794A"/>
<mask id="path-6-inside-1_2535_1013" fill="white">
<path d="M85.4565 86.3095C85.336 86.3095 85.2383 86.4072 85.2383 86.5278V88.7103C85.2383 88.8309 85.336 88.9286 85.4565 88.9286H87.6391C87.7596 88.9286 87.8573 88.8309 87.8573 88.7103V86.5278C87.8573 86.4072 87.7596 86.3095 87.6391 86.3095H85.4565ZM85.2383 102.024V101.369C85.2383 101.007 85.5314 100.714 85.893 100.714C86.2546 100.714 86.5478 101.007 86.5478 101.369V102.024H87.8573V101.369C87.8573 101.007 88.1505 100.714 88.5121 100.714C88.8737 100.714 89.1668 101.007 89.1668 101.369V102.679C89.1668 103.04 88.8737 103.333 88.5121 103.333H83.274C82.9124 103.333 82.6192 103.04 82.6192 102.679V101.369C82.6192 101.007 82.9124 100.714 83.274 100.714C83.6356 100.714 83.9287 101.007 83.9287 101.369V102.024H85.2383ZM81.3097 92.8571H81.9645C82.3261 92.8571 82.6192 93.1503 82.6192 93.5119C82.6192 93.8735 82.3261 94.1667 81.9645 94.1667H79.3454C78.9838 94.1667 78.6906 93.8735 78.6906 93.5119C78.6906 93.1503 78.9838 92.8571 79.3454 92.8571H80.0002V91.5476H78.0359C77.6743 91.5476 77.3811 91.2545 77.3811 90.8929C77.3811 90.5312 77.6743 90.2381 78.0359 90.2381H81.9645C82.3261 90.2381 82.6192 90.5312 82.6192 90.8929C82.6192 91.2545 82.3261 91.5476 81.9645 91.5476H81.3097V92.8571ZM87.8573 94.1667H87.2025C86.8409 94.1667 86.5478 93.8735 86.5478 93.5119C86.5478 93.1503 86.8409 92.8571 87.2025 92.8571H87.8573V92.2024C87.8573 91.8408 88.1505 91.5476 88.5121 91.5476C88.8737 91.5476 89.1668 91.8408 89.1668 92.2024V94.8214C89.1668 95.183 88.8737 95.4762 88.5121 95.4762C88.1505 95.4762 87.8573 95.183 87.8573 94.8214V94.1667ZM81.3097 96.7857H80.6549C80.2933 96.7857 80.0002 96.4926 80.0002 96.131C80.0002 95.7693 80.2933 95.4762 80.6549 95.4762H81.9645C82.3261 95.4762 82.6192 95.7693 82.6192 96.131V98.75C82.6192 99.1116 82.3261 99.4048 81.9645 99.4048H78.0359C77.6743 99.4048 77.3811 99.1116 77.3811 98.75C77.3811 98.3884 77.6743 98.0952 78.0359 98.0952H81.3097V96.7857ZM85.4565 85H87.6391C88.4828 85 89.1668 85.684 89.1668 86.5278V88.7103C89.1668 89.5541 88.4828 90.2381 87.6391 90.2381H85.4565C84.6127 90.2381 83.9287 89.5541 83.9287 88.7103V86.5278C83.9287 85.684 84.6127 85 85.4565 85ZM72.3613 85H74.5438C75.3876 85 76.0716 85.684 76.0716 86.5278V88.7103C76.0716 89.5541 75.3876 90.2381 74.5438 90.2381H72.3613C71.5175 90.2381 70.8335 89.5541 70.8335 88.7103V86.5278C70.8335 85.684 71.5175 85 72.3613 85ZM72.3613 86.3095C72.2407 86.3095 72.143 86.4072 72.143 86.5278V88.7103C72.143 88.8309 72.2407 88.9286 72.3613 88.9286H74.5438C74.6644 88.9286 74.7621 88.8309 74.7621 88.7103V86.5278C74.7621 86.4072 74.6644 86.3095 74.5438 86.3095H72.3613ZM72.3613 98.0952H74.5438C75.3876 98.0952 76.0716 98.7792 76.0716 99.623V101.806C76.0716 102.649 75.3876 103.333 74.5438 103.333H72.3613C71.5175 103.333 70.8335 102.649 70.8335 101.806V99.623C70.8335 98.7792 71.5175 98.0952 72.3613 98.0952ZM72.3613 99.4048C72.2407 99.4048 72.143 99.5025 72.143 99.623V101.806C72.143 101.926 72.2407 102.024 72.3613 102.024H74.5438C74.6644 102.024 74.7621 101.926 74.7621 101.806V99.623C74.7621 99.5025 74.6644 99.4048 74.5438 99.4048H72.3613ZM81.3097 86.3095H78.0359C77.6743 86.3095 77.3811 86.0164 77.3811 85.6548C77.3811 85.2931 77.6743 85 78.0359 85H81.9645C82.3261 85 82.6192 85.2931 82.6192 85.6548V88.2738C82.6192 88.6354 82.3261 88.9286 81.9645 88.9286C81.6028 88.9286 81.3097 88.6354 81.3097 88.2738V86.3095ZM78.0359 88.9286C77.6743 88.9286 77.3811 88.6354 77.3811 88.2738C77.3811 87.9122 77.6743 87.619 78.0359 87.619H79.3454C79.707 87.619 80.0002 87.9122 80.0002 88.2738C80.0002 88.6354 79.707 88.9286 79.3454 88.9286H78.0359ZM71.4883 96.7857C71.1266 96.7857 70.8335 96.4926 70.8335 96.131C70.8335 95.7693 71.1266 95.4762 71.4883 95.4762H74.1073C74.4689 95.4762 74.7621 95.7693 74.7621 96.131C74.7621 96.4926 74.4689 96.7857 74.1073 96.7857H71.4883ZM76.7264 96.7857C76.3647 96.7857 76.0716 96.4926 76.0716 96.131C76.0716 95.7693 76.3647 95.4762 76.7264 95.4762H78.0359C78.3975 95.4762 78.6906 95.7693 78.6906 96.131C78.6906 96.4926 78.3975 96.7857 78.0359 96.7857H76.7264ZM78.6906 102.024V102.679C78.6906 103.04 78.3975 103.333 78.0359 103.333C77.6743 103.333 77.3811 103.04 77.3811 102.679V101.369C77.3811 101.007 77.6743 100.714 78.0359 100.714H80.6549C81.0165 100.714 81.3097 101.007 81.3097 101.369C81.3097 101.731 81.0165 102.024 80.6549 102.024H78.6906ZM76.0716 92.8571H76.7264C77.088 92.8571 77.3811 93.1503 77.3811 93.5119C77.3811 93.8735 77.088 94.1667 76.7264 94.1667H75.4168C75.0552 94.1667 74.7621 93.8735 74.7621 93.5119V92.8571H74.1073C73.7457 92.8571 73.4525 92.564 73.4525 92.2024C73.4525 91.8408 73.7457 91.5476 74.1073 91.5476H75.4168C75.7784 91.5476 76.0716 91.8408 76.0716 92.2024V92.8571ZM70.8335 92.2024C70.8335 91.8408 71.1266 91.5476 71.4883 91.5476C71.8499 91.5476 72.143 91.8408 72.143 92.2024V93.5119C72.143 93.8735 71.8499 94.1667 71.4883 94.1667C71.1266 94.1667 70.8335 93.8735 70.8335 93.5119V92.2024ZM83.9287 92.2024C83.9287 91.8408 84.2219 91.5476 84.5835 91.5476C84.9451 91.5476 85.2383 91.8408 85.2383 92.2024V94.8214C85.2383 95.183 84.9451 95.4762 84.5835 95.4762C84.2219 95.4762 83.9287 95.183 83.9287 94.8214V92.2024ZM86.5478 98.0952V97.4405C86.5478 97.0789 86.8409 96.7857 87.2025 96.7857H88.5121C88.8737 96.7857 89.1668 97.0789 89.1668 97.4405C89.1668 97.8021 88.8737 98.0952 88.5121 98.0952H87.8573V98.75C87.8573 99.1116 87.5642 99.4048 87.2025 99.4048H84.5835C84.2219 99.4048 83.9287 99.1116 83.9287 98.75V97.4405C83.9287 97.0789 84.2219 96.7857 84.5835 96.7857C84.9451 96.7857 85.2383 97.0789 85.2383 97.4405V98.0952H86.5478Z"/>
</mask>
<path d="M85.4565 86.3095C85.336 86.3095 85.2383 86.4072 85.2383 86.5278V88.7103C85.2383 88.8309 85.336 88.9286 85.4565 88.9286H87.6391C87.7596 88.9286 87.8573 88.8309 87.8573 88.7103V86.5278C87.8573 86.4072 87.7596 86.3095 87.6391 86.3095H85.4565ZM85.2383 102.024V101.369C85.2383 101.007 85.5314 100.714 85.893 100.714C86.2546 100.714 86.5478 101.007 86.5478 101.369V102.024H87.8573V101.369C87.8573 101.007 88.1505 100.714 88.5121 100.714C88.8737 100.714 89.1668 101.007 89.1668 101.369V102.679C89.1668 103.04 88.8737 103.333 88.5121 103.333H83.274C82.9124 103.333 82.6192 103.04 82.6192 102.679V101.369C82.6192 101.007 82.9124 100.714 83.274 100.714C83.6356 100.714 83.9287 101.007 83.9287 101.369V102.024H85.2383ZM81.3097 92.8571H81.9645C82.3261 92.8571 82.6192 93.1503 82.6192 93.5119C82.6192 93.8735 82.3261 94.1667 81.9645 94.1667H79.3454C78.9838 94.1667 78.6906 93.8735 78.6906 93.5119C78.6906 93.1503 78.9838 92.8571 79.3454 92.8571H80.0002V91.5476H78.0359C77.6743 91.5476 77.3811 91.2545 77.3811 90.8929C77.3811 90.5312 77.6743 90.2381 78.0359 90.2381H81.9645C82.3261 90.2381 82.6192 90.5312 82.6192 90.8929C82.6192 91.2545 82.3261 91.5476 81.9645 91.5476H81.3097V92.8571ZM87.8573 94.1667H87.2025C86.8409 94.1667 86.5478 93.8735 86.5478 93.5119C86.5478 93.1503 86.8409 92.8571 87.2025 92.8571H87.8573V92.2024C87.8573 91.8408 88.1505 91.5476 88.5121 91.5476C88.8737 91.5476 89.1668 91.8408 89.1668 92.2024V94.8214C89.1668 95.183 88.8737 95.4762 88.5121 95.4762C88.1505 95.4762 87.8573 95.183 87.8573 94.8214V94.1667ZM81.3097 96.7857H80.6549C80.2933 96.7857 80.0002 96.4926 80.0002 96.131C80.0002 95.7693 80.2933 95.4762 80.6549 95.4762H81.9645C82.3261 95.4762 82.6192 95.7693 82.6192 96.131V98.75C82.6192 99.1116 82.3261 99.4048 81.9645 99.4048H78.0359C77.6743 99.4048 77.3811 99.1116 77.3811 98.75C77.3811 98.3884 77.6743 98.0952 78.0359 98.0952H81.3097V96.7857ZM85.4565 85H87.6391C88.4828 85 89.1668 85.684 89.1668 86.5278V88.7103C89.1668 89.5541 88.4828 90.2381 87.6391 90.2381H85.4565C84.6127 90.2381 83.9287 89.5541 83.9287 88.7103V86.5278C83.9287 85.684 84.6127 85 85.4565 85ZM72.3613 85H74.5438C75.3876 85 76.0716 85.684 76.0716 86.5278V88.7103C76.0716 89.5541 75.3876 90.2381 74.5438 90.2381H72.3613C71.5175 90.2381 70.8335 89.5541 70.8335 88.7103V86.5278C70.8335 85.684 71.5175 85 72.3613 85ZM72.3613 86.3095C72.2407 86.3095 72.143 86.4072 72.143 86.5278V88.7103C72.143 88.8309 72.2407 88.9286 72.3613 88.9286H74.5438C74.6644 88.9286 74.7621 88.8309 74.7621 88.7103V86.5278C74.7621 86.4072 74.6644 86.3095 74.5438 86.3095H72.3613ZM72.3613 98.0952H74.5438C75.3876 98.0952 76.0716 98.7792 76.0716 99.623V101.806C76.0716 102.649 75.3876 103.333 74.5438 103.333H72.3613C71.5175 103.333 70.8335 102.649 70.8335 101.806V99.623C70.8335 98.7792 71.5175 98.0952 72.3613 98.0952ZM72.3613 99.4048C72.2407 99.4048 72.143 99.5025 72.143 99.623V101.806C72.143 101.926 72.2407 102.024 72.3613 102.024H74.5438C74.6644 102.024 74.7621 101.926 74.7621 101.806V99.623C74.7621 99.5025 74.6644 99.4048 74.5438 99.4048H72.3613ZM81.3097 86.3095H78.0359C77.6743 86.3095 77.3811 86.0164 77.3811 85.6548C77.3811 85.2931 77.6743 85 78.0359 85H81.9645C82.3261 85 82.6192 85.2931 82.6192 85.6548V88.2738C82.6192 88.6354 82.3261 88.9286 81.9645 88.9286C81.6028 88.9286 81.3097 88.6354 81.3097 88.2738V86.3095ZM78.0359 88.9286C77.6743 88.9286 77.3811 88.6354 77.3811 88.2738C77.3811 87.9122 77.6743 87.619 78.0359 87.619H79.3454C79.707 87.619 80.0002 87.9122 80.0002 88.2738C80.0002 88.6354 79.707 88.9286 79.3454 88.9286H78.0359ZM71.4883 96.7857C71.1266 96.7857 70.8335 96.4926 70.8335 96.131C70.8335 95.7693 71.1266 95.4762 71.4883 95.4762H74.1073C74.4689 95.4762 74.7621 95.7693 74.7621 96.131C74.7621 96.4926 74.4689 96.7857 74.1073 96.7857H71.4883ZM76.7264 96.7857C76.3647 96.7857 76.0716 96.4926 76.0716 96.131C76.0716 95.7693 76.3647 95.4762 76.7264 95.4762H78.0359C78.3975 95.4762 78.6906 95.7693 78.6906 96.131C78.6906 96.4926 78.3975 96.7857 78.0359 96.7857H76.7264ZM78.6906 102.024V102.679C78.6906 103.04 78.3975 103.333 78.0359 103.333C77.6743 103.333 77.3811 103.04 77.3811 102.679V101.369C77.3811 101.007 77.6743 100.714 78.0359 100.714H80.6549C81.0165 100.714 81.3097 101.007 81.3097 101.369C81.3097 101.731 81.0165 102.024 80.6549 102.024H78.6906ZM76.0716 92.8571H76.7264C77.088 92.8571 77.3811 93.1503 77.3811 93.5119C77.3811 93.8735 77.088 94.1667 76.7264 94.1667H75.4168C75.0552 94.1667 74.7621 93.8735 74.7621 93.5119V92.8571H74.1073C73.7457 92.8571 73.4525 92.564 73.4525 92.2024C73.4525 91.8408 73.7457 91.5476 74.1073 91.5476H75.4168C75.7784 91.5476 76.0716 91.8408 76.0716 92.2024V92.8571ZM70.8335 92.2024C70.8335 91.8408 71.1266 91.5476 71.4883 91.5476C71.8499 91.5476 72.143 91.8408 72.143 92.2024V93.5119C72.143 93.8735 71.8499 94.1667 71.4883 94.1667C71.1266 94.1667 70.8335 93.8735 70.8335 93.5119V92.2024ZM83.9287 92.2024C83.9287 91.8408 84.2219 91.5476 84.5835 91.5476C84.9451 91.5476 85.2383 91.8408 85.2383 92.2024V94.8214C85.2383 95.183 84.9451 95.4762 84.5835 95.4762C84.2219 95.4762 83.9287 95.183 83.9287 94.8214V92.2024ZM86.5478 98.0952V97.4405C86.5478 97.0789 86.8409 96.7857 87.2025 96.7857H88.5121C88.8737 96.7857 89.1668 97.0789 89.1668 97.4405C89.1668 97.8021 88.8737 98.0952 88.5121 98.0952H87.8573V98.75C87.8573 99.1116 87.5642 99.4048 87.2025 99.4048H84.5835C84.2219 99.4048 83.9287 99.1116 83.9287 98.75V97.4405C83.9287 97.0789 84.2219 96.7857 84.5835 96.7857C84.9451 96.7857 85.2383 97.0789 85.2383 97.4405V98.0952H86.5478Z" fill="#42794A" stroke="#42794A" stroke-width="122.222" mask="url(#path-6-inside-1_2535_1013)"/>
</g>
<path d="M63.0226 157.182C62.1079 157.182 61.3239 156.967 60.6706 156.538C60.0266 156.109 59.5739 155.521 59.3126 154.774L60.4326 154.13C60.8153 155.315 61.6879 155.908 63.0506 155.908C63.7226 155.908 64.2359 155.773 64.5906 155.502C64.9453 155.222 65.1226 154.853 65.1226 154.396C65.1226 153.929 64.9453 153.579 64.5906 153.346C64.2359 153.113 63.6433 152.865 62.8126 152.604C62.4019 152.473 62.0893 152.371 61.8746 152.296C61.6599 152.212 61.3893 152.091 61.0626 151.932C60.7453 151.764 60.5073 151.596 60.3486 151.428C60.1899 151.251 60.0453 151.022 59.9146 150.742C59.7933 150.462 59.7326 150.145 59.7326 149.79C59.7326 148.941 60.0313 148.269 60.6286 147.774C61.2259 147.27 61.9539 147.018 62.8126 147.018C63.5873 147.018 64.2593 147.214 64.8286 147.606C65.4073 147.998 65.8413 148.516 66.1306 149.16L65.0386 149.79C64.6186 148.782 63.8766 148.278 62.8126 148.278C62.2806 148.278 61.8513 148.409 61.5246 148.67C61.1979 148.931 61.0346 149.286 61.0346 149.734C61.0346 150.163 61.1886 150.49 61.4966 150.714C61.8046 150.938 62.3366 151.171 63.0926 151.414C63.3633 151.498 63.5546 151.559 63.6666 151.596C63.7786 151.633 63.9513 151.699 64.1846 151.792C64.4273 151.885 64.6046 151.96 64.7166 152.016C64.8286 152.072 64.9779 152.151 65.1646 152.254C65.3606 152.357 65.5053 152.455 65.5986 152.548C65.6919 152.641 65.7993 152.758 65.9206 152.898C66.0513 153.029 66.1446 153.164 66.2006 153.304C66.2566 153.444 66.3033 153.607 66.3406 153.794C66.3873 153.971 66.4106 154.163 66.4106 154.368C66.4106 155.227 66.0979 155.913 65.4726 156.426C64.8473 156.93 64.0306 157.182 63.0226 157.182ZM75.3863 149.818C76.1703 149.818 76.805 150.075 77.2903 150.588C77.7757 151.092 78.0183 151.778 78.0183 152.646V157H76.8003V152.688C76.8003 152.147 76.6603 151.727 76.3803 151.428C76.1003 151.129 75.727 150.98 75.2603 150.98C74.7377 150.98 74.3177 151.157 74.0003 151.512C73.6923 151.857 73.5383 152.389 73.5383 153.108V157H72.3203V152.688C72.3203 152.147 72.185 151.727 71.9143 151.428C71.653 151.129 71.2937 150.98 70.8363 150.98C70.323 150.98 69.8937 151.157 69.5483 151.512C69.2123 151.867 69.0443 152.399 69.0443 153.108V157H67.8263V150H69.0443V150.938C69.5203 150.191 70.2157 149.818 71.1303 149.818C72.073 149.818 72.759 150.215 73.1883 151.008C73.6737 150.215 74.4063 149.818 75.3863 149.818ZM85.5032 150H86.7212V157H85.5032V155.796C84.8965 156.72 84.0145 157.182 82.8572 157.182C81.8772 157.182 81.0419 156.827 80.3512 156.118C79.6605 155.399 79.3152 154.527 79.3152 153.5C79.3152 152.473 79.6605 151.605 80.3512 150.896C81.0419 150.177 81.8772 149.818 82.8572 149.818C84.0145 149.818 84.8965 150.28 85.5032 151.204V150ZM83.0112 156.006C83.7205 156.006 84.3132 155.768 84.7892 155.292C85.2652 154.807 85.5032 154.209 85.5032 153.5C85.5032 152.791 85.2652 152.198 84.7892 151.722C84.3132 151.237 83.7205 150.994 83.0112 150.994C82.3112 150.994 81.7232 151.237 81.2472 151.722C80.7712 152.198 80.5332 152.791 80.5332 153.5C80.5332 154.209 80.7712 154.807 81.2472 155.292C81.7232 155.768 82.3112 156.006 83.0112 156.006ZM89.7846 151.176C90.1859 150.308 90.9139 149.874 91.9686 149.874V151.148C91.3712 151.12 90.8579 151.279 90.4286 151.624C89.9992 151.969 89.7846 152.525 89.7846 153.29V157H88.5666V150H89.7846V151.176ZM97.1324 151.176H95.2704V154.97C95.2704 155.315 95.3357 155.563 95.4664 155.712C95.6064 155.852 95.8164 155.927 96.0964 155.936C96.3764 155.936 96.7217 155.927 97.1324 155.908V157C96.0684 157.14 95.2891 157.056 94.7944 156.748C94.2997 156.431 94.0524 155.838 94.0524 154.97V151.176H92.6664V150H94.0524V148.404L95.2704 148.04V150H97.1324V151.176ZM57.6495 173.182C56.7349 173.182 55.9509 172.967 55.2975 172.538C54.6535 172.109 54.2009 171.521 53.9395 170.774L55.0595 170.13C55.4422 171.315 56.3149 171.908 57.6775 171.908C58.3495 171.908 58.8629 171.773 59.2175 171.502C59.5722 171.222 59.7495 170.853 59.7495 170.396C59.7495 169.929 59.5722 169.579 59.2175 169.346C58.8629 169.113 58.2702 168.865 57.4395 168.604C57.0289 168.473 56.7162 168.371 56.5015 168.296C56.2869 168.212 56.0162 168.091 55.6895 167.932C55.3722 167.764 55.1342 167.596 54.9755 167.428C54.8169 167.251 54.6722 167.022 54.5415 166.742C54.4202 166.462 54.3595 166.145 54.3595 165.79C54.3595 164.941 54.6582 164.269 55.2555 163.774C55.8529 163.27 56.5809 163.018 57.4395 163.018C58.2142 163.018 58.8862 163.214 59.4555 163.606C60.0342 163.998 60.4682 164.516 60.7575 165.16L59.6655 165.79C59.2455 164.782 58.5035 164.278 57.4395 164.278C56.9075 164.278 56.4782 164.409 56.1515 164.67C55.8249 164.931 55.6615 165.286 55.6615 165.734C55.6615 166.163 55.8155 166.49 56.1235 166.714C56.4315 166.938 56.9635 167.171 57.7195 167.414C57.9902 167.498 58.1815 167.559 58.2935 167.596C58.4055 167.633 58.5782 167.699 58.8115 167.792C59.0542 167.885 59.2315 167.96 59.3435 168.016C59.4555 168.072 59.6049 168.151 59.7915 168.254C59.9875 168.357 60.1322 168.455 60.2255 168.548C60.3189 168.641 60.4262 168.758 60.5475 168.898C60.6782 169.029 60.7715 169.164 60.8275 169.304C60.8835 169.444 60.9302 169.607 60.9675 169.794C61.0142 169.971 61.0375 170.163 61.0375 170.368C61.0375 171.227 60.7249 171.913 60.0995 172.426C59.4742 172.93 58.6575 173.182 57.6495 173.182ZM66.3173 165.818C67.2973 165.818 68.1326 166.177 68.8233 166.896C69.514 167.605 69.8593 168.473 69.8593 169.5C69.8593 170.527 69.514 171.399 68.8233 172.118C68.1326 172.827 67.2973 173.182 66.3173 173.182C65.16 173.182 64.278 172.72 63.6713 171.796V175.8H62.4533V166H63.6713V167.204C64.278 166.28 65.16 165.818 66.3173 165.818ZM66.1633 172.006C66.8633 172.006 67.4513 171.768 67.9273 171.292C68.4033 170.807 68.6413 170.209 68.6413 169.5C68.6413 168.791 68.4033 168.198 67.9273 167.722C67.4513 167.237 66.8633 166.994 66.1633 166.994C65.454 166.994 64.8613 167.237 64.3853 167.722C63.9093 168.198 63.6713 168.791 63.6713 169.5C63.6713 170.209 63.9093 170.807 64.3853 171.292C64.8613 171.768 65.454 172.006 66.1633 172.006ZM72.1667 170.06C72.288 170.685 72.5727 171.171 73.0207 171.516C73.478 171.861 74.038 172.034 74.7007 172.034C75.6247 172.034 76.2967 171.693 76.7167 171.012L77.7527 171.6C77.0713 172.655 76.0447 173.182 74.6727 173.182C73.562 173.182 72.6567 172.837 71.9567 172.146C71.266 171.446 70.9207 170.564 70.9207 169.5C70.9207 168.445 71.2613 167.568 71.9427 166.868C72.624 166.168 73.506 165.818 74.5887 165.818C75.6153 165.818 76.4507 166.182 77.0947 166.91C77.748 167.629 78.0747 168.497 78.0747 169.514C78.0747 169.691 78.0607 169.873 78.0327 170.06H72.1667ZM74.5887 166.966C73.9353 166.966 73.394 167.153 72.9647 167.526C72.5353 167.89 72.2693 168.38 72.1667 168.996H76.8427C76.74 168.333 76.4787 167.829 76.0587 167.484C75.6387 167.139 75.1487 166.966 74.5887 166.966ZM85.2571 166H86.4751V173H85.2571V171.796C84.6504 172.72 83.7684 173.182 82.6111 173.182C81.6311 173.182 80.7958 172.827 80.1051 172.118C79.4144 171.399 79.0691 170.527 79.0691 169.5C79.0691 168.473 79.4144 167.605 80.1051 166.896C80.7958 166.177 81.6311 165.818 82.6111 165.818C83.7684 165.818 84.6504 166.28 85.2571 167.204V166ZM82.7651 172.006C83.4744 172.006 84.0671 171.768 84.5431 171.292C85.0191 170.807 85.2571 170.209 85.2571 169.5C85.2571 168.791 85.0191 168.198 84.5431 167.722C84.0671 167.237 83.4744 166.994 82.7651 166.994C82.0651 166.994 81.4771 167.237 81.0011 167.722C80.5251 168.198 80.2871 168.791 80.2871 169.5C80.2871 170.209 80.5251 170.807 81.0011 171.292C81.4771 171.768 82.0651 172.006 82.7651 172.006ZM94.2425 173H92.7305L89.5385 169.682V173H88.3205V163.2H89.5385V169.094L92.5625 166H94.1305L90.7845 169.388L94.2425 173ZM95.5866 170.06C95.7079 170.685 95.9926 171.171 96.4406 171.516C96.8979 171.861 97.4579 172.034 98.1206 172.034C99.0446 172.034 99.7166 171.693 100.137 171.012L101.173 171.6C100.491 172.655 99.4646 173.182 98.0926 173.182C96.9819 173.182 96.0766 172.837 95.3766 172.146C94.6859 171.446 94.3406 170.564 94.3406 169.5C94.3406 168.445 94.6813 167.568 95.3626 166.868C96.0439 166.168 96.9259 165.818 98.0086 165.818C99.0353 165.818 99.8706 166.182 100.515 166.91C101.168 167.629 101.495 168.497 101.495 169.514C101.495 169.691 101.481 169.873 101.453 170.06H95.5866ZM98.0086 166.966C97.3553 166.966 96.8139 167.153 96.3846 167.526C95.9553 167.89 95.6893 168.38 95.5866 168.996H100.263C100.16 168.333 99.8986 167.829 99.4786 167.484C99.0586 167.139 98.5686 166.966 98.0086 166.966ZM104.113 167.176C104.514 166.308 105.242 165.874 106.297 165.874V167.148C105.699 167.12 105.186 167.279 104.757 167.624C104.327 167.969 104.113 168.525 104.113 169.29V173H102.895V166H104.113V167.176Z" fill="#252525"/>
<g filter="url(#filter1_d_2535_1013)">
<rect x="150" y="56" width="80" height="80" rx="16" fill="white"/>
<path d="M196.933 113.654H180.908C178.844 113.654 177.166 111.971 177.166 109.902V79.5855C177.166 77.5163 178.844 75.8329 180.908 75.8329H196.933C198.996 75.8329 200.674 77.5163 200.674 79.5855V109.902C200.674 111.971 198.996 113.654 196.933 113.654ZM180.908 76.8808C179.422 76.8808 178.214 78.0948 178.214 79.5855V109.902C178.214 111.393 179.422 112.607 180.908 112.607H196.933C198.418 112.607 199.626 111.393 199.626 109.902V79.5855C199.626 78.0948 198.418 76.8808 196.933 76.8808H180.908Z" fill="#42794A"/>
<path d="M196.987 98.4962H180.962C180.307 98.4962 179.773 97.9701 179.773 97.3226V79.5859C179.773 78.9384 180.307 78.4113 180.962 78.4113H196.987C197.631 78.4113 198.175 78.9493 198.175 79.5859V97.3226C198.175 97.9592 197.631 98.4962 196.987 98.4962ZM180.962 79.459C180.883 79.459 180.821 79.5148 180.821 79.5859V97.3226C180.821 97.3937 180.882 97.4483 180.962 97.4483H196.987C197.055 97.4483 197.127 97.3839 197.127 97.3226V79.5859C197.127 79.5247 197.055 79.459 196.987 79.459H180.962Z" fill="#42794A"/>
<path d="M182.145 96.6933C182.023 96.6933 181.9 96.6507 181.801 96.5642C181.582 96.3739 181.56 96.0436 181.75 95.8249L195.243 80.3523C195.433 80.1335 195.765 80.1127 195.982 80.3021C196.2 80.4923 196.223 80.8227 196.033 81.0414L182.54 96.5139C182.437 96.6332 182.291 96.6933 182.145 96.6933Z" fill="#42794A"/>
<path d="M198.005 116.166H179.945C178.992 116.166 178.217 115.385 178.217 114.426C178.217 113.467 178.992 112.686 179.945 112.686H198.005C198.958 112.686 199.733 113.467 199.733 114.426C199.733 115.385 198.958 116.166 198.005 116.166ZM179.945 113.734C179.57 113.734 179.265 114.045 179.265 114.426C179.265 114.808 179.57 115.118 179.945 115.118H198.005C198.38 115.118 198.685 114.808 198.685 114.426C198.685 114.045 198.38 113.734 198.005 113.734H179.945Z" fill="#42794A"/>
<path d="M196.218 110.845H193.894C193.067 110.845 192.394 110.168 192.394 109.335C192.394 108.491 193.067 107.805 193.894 107.805H196.218C197.045 107.805 197.718 108.491 197.718 109.335C197.718 110.168 197.045 110.845 196.218 110.845ZM193.894 108.853C193.649 108.853 193.442 109.074 193.442 109.335C193.442 109.59 193.645 109.797 193.894 109.797H196.218C196.467 109.797 196.67 109.59 196.67 109.335C196.67 109.074 196.463 108.853 196.218 108.853H193.894ZM190.136 110.845H187.812C186.985 110.845 186.312 110.168 186.312 109.335C186.312 108.491 186.985 107.805 187.812 107.805H190.136C190.963 107.805 191.636 108.491 191.636 109.335C191.636 110.168 190.963 110.845 190.136 110.845ZM187.812 108.853C187.567 108.853 187.36 109.074 187.36 109.335C187.36 109.59 187.563 109.797 187.812 109.797H190.136C190.385 109.797 190.588 109.59 190.588 109.335C190.588 109.074 190.381 108.853 190.136 108.853H187.812ZM184.054 110.845H181.73C180.902 110.845 180.229 110.168 180.229 109.335C180.229 108.491 180.902 107.805 181.73 107.805H184.054C184.881 107.805 185.554 108.491 185.554 109.335C185.553 110.168 184.881 110.845 184.054 110.845ZM181.729 108.853C181.484 108.853 181.277 109.074 181.277 109.335C181.277 109.59 181.48 109.797 181.729 109.797H184.054C184.303 109.797 184.506 109.59 184.506 109.335C184.506 109.074 184.298 108.853 184.054 108.853H181.729ZM196.218 107.134H193.894C193.067 107.134 192.394 106.457 192.394 105.624C192.394 104.792 193.067 104.115 193.894 104.115H196.218C197.045 104.115 197.718 104.792 197.718 105.624C197.718 106.457 197.045 107.134 196.218 107.134ZM193.894 105.163C193.645 105.163 193.442 105.37 193.442 105.624C193.442 105.879 193.645 106.086 193.894 106.086H196.218C196.467 106.086 196.67 105.879 196.67 105.624C196.67 105.37 196.467 105.163 196.218 105.163H193.894ZM190.136 107.134H187.812C186.985 107.134 186.312 106.457 186.312 105.624C186.312 104.792 186.985 104.115 187.812 104.115H190.136C190.963 104.115 191.636 104.792 191.636 105.624C191.636 106.457 190.963 107.134 190.136 107.134ZM187.812 105.163C187.563 105.163 187.36 105.37 187.36 105.624C187.36 105.879 187.563 106.086 187.812 106.086H190.136C190.385 106.086 190.588 105.879 190.588 105.624C190.588 105.37 190.385 105.163 190.136 105.163H187.812ZM184.054 107.134H181.73C180.902 107.134 180.229 106.457 180.229 105.624C180.229 104.792 180.902 104.115 181.73 104.115H184.054C184.881 104.115 185.554 104.792 185.554 105.624C185.553 106.457 184.881 107.134 184.054 107.134ZM181.729 105.163C181.48 105.163 181.277 105.37 181.277 105.624C181.277 105.879 181.48 106.086 181.729 106.086H184.054C184.303 106.086 184.506 105.879 184.506 105.624C184.506 105.37 184.303 105.163 184.054 105.163H181.729ZM196.218 103.445H193.894C193.08 103.445 192.394 102.753 192.394 101.935C192.394 101.091 193.067 100.404 193.894 100.404H196.218C197.045 100.404 197.718 101.091 197.718 101.935C197.718 102.753 197.031 103.445 196.218 103.445ZM193.894 101.452C193.649 101.452 193.442 101.674 193.442 101.935C193.442 102.181 193.653 102.397 193.894 102.397H196.218C196.459 102.397 196.67 102.181 196.67 101.935C196.67 101.674 196.463 101.452 196.218 101.452H193.894ZM190.136 103.445H187.812C186.998 103.445 186.312 102.753 186.312 101.935C186.312 101.091 186.985 100.404 187.812 100.404H190.136C190.963 100.404 191.636 101.091 191.636 101.935C191.636 102.753 190.949 103.445 190.136 103.445ZM187.812 101.452C187.567 101.452 187.36 101.674 187.36 101.935C187.36 102.181 187.571 102.397 187.812 102.397H190.136C190.377 102.397 190.588 102.181 190.588 101.935C190.588 101.674 190.381 101.452 190.136 101.452H187.812ZM184.054 103.445H181.73C180.916 103.445 180.229 102.753 180.229 101.935C180.229 101.091 180.902 100.404 181.73 100.404H184.054C184.881 100.404 185.554 101.091 185.554 101.935C185.553 102.753 184.867 103.445 184.054 103.445ZM181.729 101.452C181.484 101.452 181.277 101.674 181.277 101.935C181.277 102.181 181.489 102.397 181.729 102.397H184.054C184.295 102.397 184.506 102.181 184.506 101.935C184.506 101.674 184.298 101.452 184.054 101.452H181.729Z" fill="#42794A"/>
<path d="M201.847 98.4408C201.553 98.4408 201.314 98.2066 201.314 97.9164C201.314 97.6263 201.553 97.392 201.847 97.392C202.095 97.392 202.305 97.1906 202.305 96.9519V84.0239C202.305 83.7688 202.099 83.5619 201.847 83.5619C201.553 83.5619 201.314 83.3276 201.314 83.0375C201.314 82.7473 201.553 82.513 201.847 82.513C202.686 82.513 203.37 83.1907 203.37 84.0239V96.9519C203.37 97.773 202.687 98.4408 201.847 98.4408Z" fill="#42794A"/>
</g>
<path d="M181.044 147.2C181.949 147.2 182.7 147.503 183.298 148.11C183.904 148.707 184.208 149.454 184.208 150.35C184.208 151.237 183.904 151.983 183.298 152.59C182.7 153.197 181.949 153.5 181.044 153.5H178.79V157H177.488V147.2H181.044ZM181.044 152.282C181.585 152.282 182.033 152.1 182.388 151.736C182.742 151.363 182.92 150.901 182.92 150.35C182.92 149.79 182.742 149.328 182.388 148.964C182.033 148.6 181.585 148.418 181.044 148.418H178.79V152.282H181.044ZM193.825 155.698C192.845 156.687 191.646 157.182 190.227 157.182C188.808 157.182 187.609 156.687 186.629 155.698C185.649 154.709 185.159 153.509 185.159 152.1C185.159 150.681 185.649 149.482 186.629 148.502C187.609 147.513 188.808 147.018 190.227 147.018C191.646 147.018 192.845 147.513 193.825 148.502C194.814 149.482 195.309 150.681 195.309 152.1C195.309 153.509 194.814 154.709 193.825 155.698ZM187.525 154.816C188.253 155.544 189.154 155.908 190.227 155.908C191.3 155.908 192.196 155.544 192.915 154.816C193.643 154.079 194.007 153.173 194.007 152.1C194.007 151.017 193.643 150.112 192.915 149.384C192.196 148.647 191.3 148.278 190.227 148.278C189.154 148.278 188.253 148.647 187.525 149.384C186.806 150.112 186.447 151.017 186.447 152.1C186.447 153.173 186.806 154.079 187.525 154.816ZM199.683 157.182C198.768 157.182 197.984 156.967 197.331 156.538C196.687 156.109 196.234 155.521 195.973 154.774L197.093 154.13C197.475 155.315 198.348 155.908 199.711 155.908C200.383 155.908 200.896 155.773 201.251 155.502C201.605 155.222 201.783 154.853 201.783 154.396C201.783 153.929 201.605 153.579 201.251 153.346C200.896 153.113 200.303 152.865 199.473 152.604C199.062 152.473 198.749 152.371 198.535 152.296C198.32 152.212 198.049 152.091 197.723 151.932C197.405 151.764 197.167 151.596 197.009 151.428C196.85 151.251 196.705 151.022 196.575 150.742C196.453 150.462 196.393 150.145 196.393 149.79C196.393 148.941 196.691 148.269 197.289 147.774C197.886 147.27 198.614 147.018 199.473 147.018C200.247 147.018 200.919 147.214 201.489 147.606C202.067 147.998 202.501 148.516 202.791 149.16L201.699 149.79C201.279 148.782 200.537 148.278 199.473 148.278C198.941 148.278 198.511 148.409 198.185 148.67C197.858 148.931 197.695 149.286 197.695 149.734C197.695 150.163 197.849 150.49 198.157 150.714C198.465 150.938 198.997 151.171 199.753 151.414C200.023 151.498 200.215 151.559 200.327 151.596C200.439 151.633 200.611 151.699 200.845 151.792C201.087 151.885 201.265 151.96 201.377 152.016C201.489 152.072 201.638 152.151 201.825 152.254C202.021 152.357 202.165 152.455 202.259 152.548C202.352 152.641 202.459 152.758 202.581 152.898C202.711 153.029 202.805 153.164 202.861 153.304C202.917 153.444 202.963 153.607 203.001 153.794C203.047 153.971 203.071 154.163 203.071 154.368C203.071 155.227 202.758 155.913 202.133 156.426C201.507 156.93 200.691 157.182 199.683 157.182ZM172.815 163.2V173H171.527V165.342L168.321 170.676H168.153L164.947 165.356V173H163.645V163.2H165.115L168.237 168.38L171.345 163.2H172.815ZM180.58 166H181.798V173H180.58V171.796C179.974 172.72 179.092 173.182 177.934 173.182C176.954 173.182 176.119 172.827 175.428 172.118C174.738 171.399 174.392 170.527 174.392 169.5C174.392 168.473 174.738 167.605 175.428 166.896C176.119 166.177 176.954 165.818 177.934 165.818C179.092 165.818 179.974 166.28 180.58 167.204V166ZM178.088 172.006C178.798 172.006 179.39 171.768 179.866 171.292C180.342 170.807 180.58 170.209 180.58 169.5C180.58 168.791 180.342 168.198 179.866 167.722C179.39 167.237 178.798 166.994 178.088 166.994C177.388 166.994 176.8 167.237 176.324 167.722C175.848 168.198 175.61 168.791 175.61 169.5C175.61 170.209 175.848 170.807 176.324 171.292C176.8 171.768 177.388 172.006 178.088 172.006ZM186.934 173.182C185.879 173.182 185.002 172.832 184.302 172.132C183.602 171.423 183.252 170.545 183.252 169.5C183.252 168.455 183.602 167.582 184.302 166.882C185.002 166.173 185.879 165.818 186.934 165.818C187.624 165.818 188.245 165.986 188.796 166.322C189.346 166.649 189.757 167.092 190.028 167.652L189.006 168.24C188.828 167.867 188.553 167.568 188.18 167.344C187.816 167.12 187.4 167.008 186.934 167.008C186.234 167.008 185.646 167.246 185.17 167.722C184.703 168.198 184.47 168.791 184.47 169.5C184.47 170.2 184.703 170.788 185.17 171.264C185.646 171.74 186.234 171.978 186.934 171.978C187.4 171.978 187.82 171.871 188.194 171.656C188.567 171.432 188.852 171.133 189.048 170.76L190.084 171.362C189.785 171.913 189.356 172.356 188.796 172.692C188.236 173.019 187.615 173.182 186.934 173.182ZM194.772 165.818C195.594 165.818 196.252 166.079 196.746 166.602C197.241 167.115 197.488 167.815 197.488 168.702V173H196.27V168.772C196.27 168.203 196.116 167.764 195.808 167.456C195.5 167.139 195.076 166.98 194.534 166.98C193.928 166.98 193.438 167.171 193.064 167.554C192.691 167.927 192.504 168.506 192.504 169.29V173H191.286V163.2H192.504V167.008C192.999 166.215 193.755 165.818 194.772 165.818ZM199.805 164.726C199.571 164.726 199.375 164.647 199.217 164.488C199.058 164.329 198.979 164.138 198.979 163.914C198.979 163.69 199.058 163.499 199.217 163.34C199.375 163.172 199.571 163.088 199.805 163.088C200.029 163.088 200.22 163.172 200.379 163.34C200.537 163.499 200.617 163.69 200.617 163.914C200.617 164.138 200.537 164.329 200.379 164.488C200.22 164.647 200.029 164.726 199.805 164.726ZM199.189 173V166H200.407V173H199.189ZM205.751 165.818C206.572 165.818 207.23 166.079 207.725 166.602C208.219 167.115 208.467 167.815 208.467 168.702V173H207.249V168.772C207.249 168.203 207.095 167.764 206.787 167.456C206.479 167.139 206.054 166.98 205.513 166.98C204.906 166.98 204.416 167.171 204.043 167.554C203.669 167.927 203.483 168.506 203.483 169.29V173H202.265V166H203.483V167.008C203.977 166.215 204.733 165.818 205.751 165.818ZM211.021 170.06C211.142 170.685 211.427 171.171 211.875 171.516C212.332 171.861 212.892 172.034 213.555 172.034C214.479 172.034 215.151 171.693 215.571 171.012L216.607 171.6C215.926 172.655 214.899 173.182 213.527 173.182C212.416 173.182 211.511 172.837 210.811 172.146C210.12 171.446 209.775 170.564 209.775 169.5C209.775 168.445 210.116 167.568 210.797 166.868C211.478 166.168 212.36 165.818 213.443 165.818C214.47 165.818 215.305 166.182 215.949 166.91C216.602 167.629 216.929 168.497 216.929 169.514C216.929 169.691 216.915 169.873 216.887 170.06H211.021ZM213.443 166.966C212.79 166.966 212.248 167.153 211.819 167.526C211.39 167.89 211.124 168.38 211.021 168.996H215.697C215.594 168.333 215.333 167.829 214.913 167.484C214.493 167.139 214.003 166.966 213.443 166.966Z" fill="#252525"/>
<rect x="510.5" y="0.5" width="489" height="199" rx="15.5" stroke="#EEEEEE"/>
<path d="M552.36 27.2V37H550.75V30.014L547.768 34.942H547.572L544.59 30V37H542.98V27.2H544.716L547.67 32.1L550.638 27.2H552.36ZM562.378 37L561.692 35.026H557.52L556.834 37H555.084L558.64 27.2H560.572L564.114 37H562.378ZM558.052 33.514H561.16L559.606 29.09L558.052 33.514ZM572.728 27.2H574.338V37H573.078L568.458 30.35V37H566.848V27.2H568.108L572.728 33.85V27.2ZM584.359 37L583.673 35.026H579.501L578.815 37H577.065L580.621 27.2H582.553L586.095 37H584.359ZM580.033 33.514H583.141L581.587 29.09L580.033 33.514ZM597.994 31.932V32.604C597.994 33.948 597.55 35.0493 596.664 35.908C595.777 36.7573 594.62 37.182 593.192 37.182C591.68 37.182 590.429 36.692 589.44 35.712C588.46 34.732 587.97 33.528 587.97 32.1C587.97 30.6813 588.46 29.482 589.44 28.502C590.429 27.5127 591.652 27.018 593.108 27.018C594.022 27.018 594.858 27.228 595.614 27.648C596.37 28.068 596.958 28.6327 597.378 29.342L595.992 30.14C595.73 29.6733 595.343 29.3 594.83 29.02C594.316 28.7307 593.742 28.586 593.108 28.586C592.081 28.586 591.236 28.922 590.574 29.594C589.911 30.266 589.58 31.106 589.58 32.114C589.58 33.122 589.911 33.9573 590.574 34.62C591.246 35.2827 592.123 35.614 593.206 35.614C594.074 35.614 594.778 35.4133 595.32 35.012C595.87 34.6013 596.22 34.0553 596.37 33.374H593.094V31.932H597.994ZM602.756 35.46H607.096V37H601.146V27.2H607.026V28.74H602.756V31.288H606.676V32.814H602.756V35.46ZM621.197 31.918C621.627 32.142 621.963 32.45 622.205 32.842C622.448 33.234 622.569 33.6867 622.569 34.2C622.569 35.0027 622.285 35.67 621.715 36.202C621.146 36.734 620.451 37 619.629 37H615.429V27.2H619.321C620.124 27.2 620.801 27.4613 621.351 27.984C621.911 28.4973 622.191 29.1413 622.191 29.916C622.191 30.7653 621.86 31.4327 621.197 31.918ZM619.321 28.712H617.039V31.288H619.321C619.676 31.288 619.975 31.1667 620.217 30.924C620.46 30.672 620.581 30.364 620.581 30C620.581 29.636 620.46 29.3327 620.217 29.09C619.975 28.838 619.676 28.712 619.321 28.712ZM619.629 35.488C620.003 35.488 620.315 35.3573 620.567 35.096C620.829 34.8253 620.959 34.4987 620.959 34.116C620.959 33.7333 620.829 33.4113 620.567 33.15C620.315 32.8793 620.003 32.744 619.629 32.744H617.039V35.488H619.629ZM631.858 36.258C631.168 36.874 630.276 37.182 629.184 37.182C628.092 37.182 627.201 36.874 626.51 36.258C625.82 35.6327 625.474 34.7973 625.474 33.752V27.2H627.084V33.654C627.084 34.2513 627.257 34.7273 627.602 35.082C627.957 35.4367 628.484 35.614 629.184 35.614C629.884 35.614 630.407 35.4367 630.752 35.082C631.107 34.7273 631.284 34.2513 631.284 33.654V27.2H632.894V33.752C632.894 34.7973 632.549 35.6327 631.858 36.258ZM639.688 37.182C638.746 37.182 637.943 36.9673 637.28 36.538C636.627 36.1087 636.17 35.5207 635.908 34.774L637.294 33.962C637.686 35.0633 638.498 35.614 639.73 35.614C640.337 35.614 640.79 35.4973 641.088 35.264C641.396 35.0213 641.55 34.7087 641.55 34.326C641.55 33.9247 641.387 33.6213 641.06 33.416C640.734 33.2013 640.155 32.968 639.324 32.716C638.858 32.576 638.48 32.4453 638.19 32.324C637.901 32.2027 637.593 32.0347 637.266 31.82C636.949 31.596 636.711 31.3207 636.552 30.994C636.394 30.6673 636.314 30.2847 636.314 29.846C636.314 28.978 636.622 28.292 637.238 27.788C637.854 27.2747 638.596 27.018 639.464 27.018C640.248 27.018 640.934 27.2093 641.522 27.592C642.11 27.9747 642.563 28.502 642.88 29.174L641.522 29.958C641.112 29.0433 640.426 28.586 639.464 28.586C638.998 28.586 638.624 28.698 638.344 28.922C638.064 29.1367 637.924 29.4307 637.924 29.804C637.924 30.168 638.064 30.4573 638.344 30.672C638.634 30.8773 639.152 31.0967 639.898 31.33C640.272 31.4513 640.542 31.5447 640.71 31.61C640.888 31.666 641.13 31.7593 641.438 31.89C641.756 32.0207 641.994 32.1513 642.152 32.282C642.311 32.4127 642.479 32.576 642.656 32.772C642.843 32.968 642.974 33.192 643.048 33.444C643.123 33.696 643.16 33.9807 643.16 34.298C643.16 35.1847 642.838 35.8893 642.194 36.412C641.56 36.9253 640.724 37.182 639.688 37.182ZM646.159 27.2H647.769V37H646.159V27.2ZM657.287 27.2H658.897V37H657.637L653.017 30.35V37H651.407V27.2H652.667L657.287 33.85V27.2ZM664.145 35.46H668.485V37H662.535V27.2H668.415V28.74H664.145V31.288H668.065V32.814H664.145V35.46ZM674.9 37.182C673.958 37.182 673.155 36.9673 672.492 36.538C671.839 36.1087 671.382 35.5207 671.12 34.774L672.506 33.962C672.898 35.0633 673.71 35.614 674.942 35.614C675.549 35.614 676.002 35.4973 676.3 35.264C676.608 35.0213 676.762 34.7087 676.762 34.326C676.762 33.9247 676.599 33.6213 676.272 33.416C675.946 33.2013 675.367 32.968 674.536 32.716C674.07 32.576 673.692 32.4453 673.402 32.324C673.113 32.2027 672.805 32.0347 672.478 31.82C672.161 31.596 671.923 31.3207 671.764 30.994C671.606 30.6673 671.526 30.2847 671.526 29.846C671.526 28.978 671.834 28.292 672.45 27.788C673.066 27.2747 673.808 27.018 674.676 27.018C675.46 27.018 676.146 27.2093 676.734 27.592C677.322 27.9747 677.775 28.502 678.092 29.174L676.734 29.958C676.324 29.0433 675.638 28.586 674.676 28.586C674.21 28.586 673.836 28.698 673.556 28.922C673.276 29.1367 673.136 29.4307 673.136 29.804C673.136 30.168 673.276 30.4573 673.556 30.672C673.846 30.8773 674.364 31.0967 675.11 31.33C675.484 31.4513 675.754 31.5447 675.922 31.61C676.1 31.666 676.342 31.7593 676.65 31.89C676.968 32.0207 677.206 32.1513 677.364 32.282C677.523 32.4127 677.691 32.576 677.868 32.772C678.055 32.968 678.186 33.192 678.26 33.444C678.335 33.696 678.372 33.9807 678.372 34.298C678.372 35.1847 678.05 35.8893 677.406 36.412C676.772 36.9253 675.936 37.182 674.9 37.182ZM684.387 37.182C683.444 37.182 682.642 36.9673 681.979 36.538C681.326 36.1087 680.868 35.5207 680.607 34.774L681.993 33.962C682.385 35.0633 683.197 35.614 684.429 35.614C685.036 35.614 685.488 35.4973 685.787 35.264C686.095 35.0213 686.249 34.7087 686.249 34.326C686.249 33.9247 686.086 33.6213 685.759 33.416C685.432 33.2013 684.854 32.968 684.023 32.716C683.556 32.576 683.178 32.4453 682.889 32.324C682.6 32.2027 682.292 32.0347 681.965 31.82C681.648 31.596 681.41 31.3207 681.251 30.994C681.092 30.6673 681.013 30.2847 681.013 29.846C681.013 28.978 681.321 28.292 681.937 27.788C682.553 27.2747 683.295 27.018 684.163 27.018C684.947 27.018 685.633 27.2093 686.221 27.592C686.809 27.9747 687.262 28.502 687.579 29.174L686.221 29.958C685.81 29.0433 685.124 28.586 684.163 28.586C683.696 28.586 683.323 28.698 683.043 28.922C682.763 29.1367 682.623 29.4307 682.623 29.804C682.623 30.168 682.763 30.4573 683.043 30.672C683.332 30.8773 683.85 31.0967 684.597 31.33C684.97 31.4513 685.241 31.5447 685.409 31.61C685.586 31.666 685.829 31.7593 686.137 31.89C686.454 32.0207 686.692 32.1513 686.851 32.282C687.01 32.4127 687.178 32.576 687.355 32.772C687.542 32.968 687.672 33.192 687.747 33.444C687.822 33.696 687.859 33.9807 687.859 34.298C687.859 35.1847 687.537 35.8893 686.893 36.412C686.258 36.9253 685.423 37.182 684.387 37.182Z" fill="#999999"/>
<g filter="url(#filter2_d_2535_1013)">
<rect x="550" y="56" width="80" height="80" rx="16" fill="white"/>
<path d="M593.236 77.9458C592.563 77.6667 591.708 77.6667 590 77.6667C588.291 77.6667 587.437 77.6667 586.763 77.9458C585.865 78.3179 585.151 79.0318 584.779 79.9302C584.609 80.3403 584.543 80.8173 584.517 81.513C584.478 82.5354 583.954 83.4818 583.068 83.9934C582.182 84.5049 581.1 84.4858 580.196 84.0077C579.58 83.6824 579.134 83.5015 578.694 83.4436C577.729 83.3166 576.754 83.5779 575.983 84.1699C575.404 84.6139 574.977 85.3537 574.123 86.8332C573.269 88.3128 572.842 89.0526 572.746 89.7757C572.619 90.7398 572.881 91.7149 573.473 92.4864C573.743 92.8386 574.123 93.1345 574.712 93.5049C575.579 94.0494 576.136 94.9768 576.136 96C576.136 97.0232 575.578 97.9505 574.712 98.4948C574.123 98.8653 573.743 99.1614 573.473 99.5136C572.881 100.285 572.619 101.26 572.746 102.224C572.841 102.947 573.269 103.687 574.123 105.167C574.977 106.646 575.404 107.386 575.983 107.83C576.754 108.422 577.729 108.683 578.693 108.556C579.134 108.498 579.58 108.317 580.195 107.992C581.1 107.514 582.182 107.495 583.068 108.007C583.954 108.518 584.478 109.465 584.517 110.487C584.543 111.183 584.609 111.66 584.779 112.07C585.151 112.968 585.865 113.682 586.763 114.054C587.437 114.333 588.291 114.333 590 114.333C591.708 114.333 592.563 114.333 593.236 114.054C594.135 113.682 594.849 112.968 595.221 112.07C595.391 111.66 595.457 111.183 595.483 110.487C595.521 109.465 596.046 108.518 596.932 108.007C597.818 107.495 598.9 107.514 599.804 107.992C600.42 108.317 600.866 108.498 601.306 108.556C602.27 108.683 603.245 108.422 604.017 107.83C604.595 107.386 605.023 106.646 605.877 105.167C606.731 103.687 607.158 102.947 607.253 102.224C607.38 101.26 607.119 100.285 606.527 99.5134C606.257 99.1612 605.877 98.8652 605.288 98.4948C604.421 97.9505 603.864 97.023 603.864 95.9998C603.864 94.9767 604.421 94.0495 605.288 93.5052C605.877 93.1347 606.257 92.8388 606.527 92.4864C607.119 91.715 607.38 90.7399 607.254 89.7758C607.158 89.0527 606.731 88.3129 605.877 86.8334C605.023 85.3538 604.596 84.614 604.017 84.17C603.246 83.578 602.27 83.3167 601.306 83.4437C600.866 83.5016 600.42 83.6825 599.804 84.0078C598.9 84.4859 597.818 84.5051 596.932 83.9934C596.046 83.4819 595.521 82.5354 595.483 81.5129C595.457 80.8172 595.391 80.3403 595.221 79.9302C594.849 79.0318 594.135 78.3179 593.236 77.9458Z" stroke="#42794A" stroke-width="3"/>
<path d="M584 89H588.5M588.5 89C590.985 89 593 90.7629 593 92.9375C593 95.1121 590.985 96.875 588.5 96.875H584L591 103M588.5 89H596M584 92.9375H596" stroke="#42794A" stroke-width="2" stroke-linecap="round" stroke-linejoin="round"/>
</g>
<path d="M566.093 147.2C566.999 147.2 567.75 147.503 568.347 148.11C568.954 148.707 569.257 149.454 569.257 150.35C569.257 151.237 568.954 151.983 568.347 152.59C567.75 153.197 566.999 153.5 566.093 153.5H563.839V157H562.537V147.2H566.093ZM566.093 152.282C566.635 152.282 567.083 152.1 567.437 151.736C567.792 151.363 567.969 150.901 567.969 150.35C567.969 149.79 567.792 149.328 567.437 148.964C567.083 148.6 566.635 148.418 566.093 148.418H563.839V152.282H566.093ZM575.932 150H577.15V157H575.932V155.796C575.325 156.72 574.443 157.182 573.286 157.182C572.306 157.182 571.471 156.827 570.78 156.118C570.089 155.399 569.744 154.527 569.744 153.5C569.744 152.473 570.089 151.605 570.78 150.896C571.471 150.177 572.306 149.818 573.286 149.818C574.443 149.818 575.325 150.28 575.932 151.204V150ZM573.44 156.006C574.149 156.006 574.742 155.768 575.218 155.292C575.694 154.807 575.932 154.209 575.932 153.5C575.932 152.791 575.694 152.198 575.218 151.722C574.742 151.237 574.149 150.994 573.44 150.994C572.74 150.994 572.152 151.237 571.676 151.722C571.2 152.198 570.962 152.791 570.962 153.5C570.962 154.209 571.2 154.807 571.676 155.292C572.152 155.768 572.74 156.006 573.44 156.006ZM583.881 150H585.183L582.327 157.434C582.029 158.227 581.609 158.829 581.067 159.24C580.535 159.66 579.919 159.847 579.219 159.8V158.666C580.078 158.731 580.708 158.255 581.109 157.238L581.235 156.972L578.183 150H579.485L581.865 155.488L583.881 150ZM593.76 149.818C594.544 149.818 595.179 150.075 595.664 150.588C596.15 151.092 596.392 151.778 596.392 152.646V157H595.174V152.688C595.174 152.147 595.034 151.727 594.754 151.428C594.474 151.129 594.101 150.98 593.634 150.98C593.112 150.98 592.692 151.157 592.374 151.512C592.066 151.857 591.912 152.389 591.912 153.108V157H590.694V152.688C590.694 152.147 590.559 151.727 590.288 151.428C590.027 151.129 589.668 150.98 589.21 150.98C588.697 150.98 588.268 151.157 587.922 151.512C587.586 151.867 587.418 152.399 587.418 153.108V157H586.2V150H587.418V150.938C587.894 150.191 588.59 149.818 589.504 149.818C590.447 149.818 591.133 150.215 591.562 151.008C592.048 150.215 592.78 149.818 593.76 149.818ZM598.935 154.06C599.057 154.685 599.341 155.171 599.789 155.516C600.247 155.861 600.807 156.034 601.469 156.034C602.393 156.034 603.065 155.693 603.485 155.012L604.521 155.6C603.84 156.655 602.813 157.182 601.441 157.182C600.331 157.182 599.425 156.837 598.725 156.146C598.035 155.446 597.689 154.564 597.689 153.5C597.689 152.445 598.03 151.568 598.711 150.868C599.393 150.168 600.275 149.818 601.357 149.818C602.384 149.818 603.219 150.182 603.863 150.91C604.517 151.629 604.843 152.497 604.843 153.514C604.843 153.691 604.829 153.873 604.801 154.06H598.935ZM601.357 150.966C600.704 150.966 600.163 151.153 599.733 151.526C599.304 151.89 599.038 152.38 598.935 152.996H603.611C603.509 152.333 603.247 151.829 602.827 151.484C602.407 151.139 601.917 150.966 601.357 150.966ZM609.729 149.818C610.551 149.818 611.209 150.079 611.703 150.602C612.198 151.115 612.445 151.815 612.445 152.702V157H611.227V152.772C611.227 152.203 611.073 151.764 610.765 151.456C610.457 151.139 610.033 150.98 609.491 150.98C608.885 150.98 608.395 151.171 608.021 151.554C607.648 151.927 607.461 152.506 607.461 153.29V157H606.243V150H607.461V151.008C607.956 150.215 608.712 149.818 609.729 149.818ZM617.954 151.176H616.092V154.97C616.092 155.315 616.157 155.563 616.288 155.712C616.428 155.852 616.638 155.927 616.918 155.936C617.198 155.936 617.543 155.927 617.954 155.908V157C616.89 157.14 616.11 157.056 615.616 156.748C615.121 156.431 614.874 155.838 614.874 154.97V151.176H613.488V150H614.874V148.404L616.092 148.04V150H617.954V151.176ZM567.923 173.182C567.008 173.182 566.224 172.967 565.571 172.538C564.927 172.109 564.474 171.521 564.213 170.774L565.333 170.13C565.716 171.315 566.588 171.908 567.951 171.908C568.623 171.908 569.136 171.773 569.491 171.502C569.846 171.222 570.023 170.853 570.023 170.396C570.023 169.929 569.846 169.579 569.491 169.346C569.136 169.113 568.544 168.865 567.713 168.604C567.302 168.473 566.99 168.371 566.775 168.296C566.56 168.212 566.29 168.091 565.963 167.932C565.646 167.764 565.408 167.596 565.249 167.428C565.09 167.251 564.946 167.022 564.815 166.742C564.694 166.462 564.633 166.145 564.633 165.79C564.633 164.941 564.932 164.269 565.529 163.774C566.126 163.27 566.854 163.018 567.713 163.018C568.488 163.018 569.16 163.214 569.729 163.606C570.308 163.998 570.742 164.516 571.031 165.16L569.939 165.79C569.519 164.782 568.777 164.278 567.713 164.278C567.181 164.278 566.752 164.409 566.425 164.67C566.098 164.931 565.935 165.286 565.935 165.734C565.935 166.163 566.089 166.49 566.397 166.714C566.705 166.938 567.237 167.171 567.993 167.414C568.264 167.498 568.455 167.559 568.567 167.596C568.679 167.633 568.852 167.699 569.085 167.792C569.328 167.885 569.505 167.96 569.617 168.016C569.729 168.072 569.878 168.151 570.065 168.254C570.261 168.357 570.406 168.455 570.499 168.548C570.592 168.641 570.7 168.758 570.821 168.898C570.952 169.029 571.045 169.164 571.101 169.304C571.157 169.444 571.204 169.607 571.241 169.794C571.288 169.971 571.311 170.163 571.311 170.368C571.311 171.227 570.998 171.913 570.373 172.426C569.748 172.93 568.931 173.182 567.923 173.182ZM573.745 170.06C573.866 170.685 574.151 171.171 574.599 171.516C575.056 171.861 575.616 172.034 576.279 172.034C577.203 172.034 577.875 171.693 578.295 171.012L579.331 171.6C578.649 172.655 577.623 173.182 576.251 173.182C575.14 173.182 574.235 172.837 573.535 172.146C572.844 171.446 572.499 170.564 572.499 169.5C572.499 168.445 572.839 167.568 573.521 166.868C574.202 166.168 575.084 165.818 576.167 165.818C577.193 165.818 578.029 166.182 578.673 166.91C579.326 167.629 579.653 168.497 579.653 169.514C579.653 169.691 579.639 169.873 579.611 170.06H573.745ZM576.167 166.966C575.513 166.966 574.972 167.153 574.543 167.526C574.113 167.89 573.847 168.38 573.745 168.996H578.421C578.318 168.333 578.057 167.829 577.637 167.484C577.217 167.139 576.727 166.966 576.167 166.966ZM584.656 167.176H582.794V170.97C582.794 171.315 582.859 171.563 582.99 171.712C583.13 171.852 583.34 171.927 583.62 171.936C583.9 171.936 584.245 171.927 584.656 171.908V173C583.592 173.14 582.812 173.056 582.318 172.748C581.823 172.431 581.576 171.838 581.576 170.97V167.176H580.19V166H581.576V164.404L582.794 164.04V166H584.656V167.176ZM589.537 167.176H587.675V170.97C587.675 171.315 587.74 171.563 587.871 171.712C588.011 171.852 588.221 171.927 588.501 171.936C588.781 171.936 589.126 171.927 589.537 171.908V173C588.473 173.14 587.693 173.056 587.199 172.748C586.704 172.431 586.457 171.838 586.457 170.97V167.176H585.071V166H586.457V164.404L587.675 164.04V166H589.537V167.176ZM591.595 164.726C591.361 164.726 591.165 164.647 591.007 164.488C590.848 164.329 590.769 164.138 590.769 163.914C590.769 163.69 590.848 163.499 591.007 163.34C591.165 163.172 591.361 163.088 591.595 163.088C591.819 163.088 592.01 163.172 592.169 163.34C592.327 163.499 592.407 163.69 592.407 163.914C592.407 164.138 592.327 164.329 592.169 164.488C592.01 164.647 591.819 164.726 591.595 164.726ZM590.979 173V166H592.197V173H590.979ZM597.541 165.818C598.362 165.818 599.02 166.079 599.515 166.602C600.01 167.115 600.257 167.815 600.257 168.702V173H599.039V168.772C599.039 168.203 598.885 167.764 598.577 167.456C598.269 167.139 597.844 166.98 597.303 166.98C596.696 166.98 596.206 167.171 595.833 167.554C595.46 167.927 595.273 168.506 595.273 169.29V173H594.055V166H595.273V167.008C595.768 166.215 596.524 165.818 597.541 165.818ZM607.767 166H608.971V172.706C608.971 173.742 608.621 174.545 607.921 175.114C607.221 175.693 606.381 175.982 605.401 175.982C604.617 175.982 603.941 175.833 603.371 175.534C602.802 175.245 602.373 174.825 602.083 174.274L603.147 173.672C603.53 174.456 604.291 174.848 605.429 174.848C606.157 174.848 606.727 174.657 607.137 174.274C607.557 173.891 607.767 173.369 607.767 172.706V171.712C607.151 172.645 606.274 173.112 605.135 173.112C604.137 173.112 603.292 172.757 602.601 172.048C601.911 171.339 601.565 170.475 601.565 169.458C601.565 168.441 601.911 167.582 602.601 166.882C603.292 166.173 604.137 165.818 605.135 165.818C606.283 165.818 607.161 166.28 607.767 167.204V166ZM603.497 171.236C603.973 171.712 604.566 171.95 605.275 171.95C605.985 171.95 606.577 171.712 607.053 171.236C607.529 170.76 607.767 170.167 607.767 169.458C607.767 168.758 607.529 168.17 607.053 167.694C606.577 167.218 605.985 166.98 605.275 166.98C604.566 166.98 603.973 167.218 603.497 167.694C603.021 168.17 602.783 168.758 602.783 169.458C602.783 170.167 603.021 170.76 603.497 171.236ZM611.853 167.89C611.853 168.161 611.988 168.38 612.259 168.548C612.53 168.707 612.856 168.837 613.239 168.94C613.622 169.033 614.004 169.145 614.387 169.276C614.77 169.397 615.096 169.612 615.367 169.92C615.638 170.219 615.773 170.606 615.773 171.082C615.773 171.717 615.526 172.225 615.031 172.608C614.546 172.991 613.92 173.182 613.155 173.182C612.474 173.182 611.89 173.033 611.405 172.734C610.92 172.435 610.574 172.039 610.369 171.544L611.419 170.942C611.531 171.278 611.741 171.544 612.049 171.74C612.357 171.936 612.726 172.034 613.155 172.034C613.556 172.034 613.888 171.959 614.149 171.81C614.41 171.651 614.541 171.409 614.541 171.082C614.541 170.811 614.406 170.597 614.135 170.438C613.864 170.27 613.538 170.139 613.155 170.046C612.772 169.943 612.39 169.827 612.007 169.696C611.624 169.565 611.298 169.351 611.027 169.052C610.756 168.753 610.621 168.371 610.621 167.904C610.621 167.297 610.854 166.798 611.321 166.406C611.797 166.014 612.39 165.818 613.099 165.818C613.668 165.818 614.172 165.949 614.611 166.21C615.059 166.462 615.395 166.817 615.619 167.274L614.597 167.848C614.345 167.251 613.846 166.952 613.099 166.952C612.754 166.952 612.46 167.036 612.217 167.204C611.974 167.363 611.853 167.591 611.853 167.89Z" fill="#252525"/>
<g filter="url(#filter3_d_2535_1013)">
<rect x="660" y="56" width="80" height="80" rx="16" fill="white"/>
<path d="M704.513 96.4231C702.839 96.4231 701.203 95.9269 699.812 94.997C698.42 94.0674 697.336 92.7458 696.695 91.1996C696.055 89.6535 695.887 87.9522 696.214 86.3108C696.54 84.6694 697.346 83.1617 698.53 81.9783C699.713 80.795 701.221 79.9891 702.862 79.6626C704.503 79.3361 706.205 79.5037 707.751 80.1441C709.297 80.7845 710.619 81.8691 711.548 83.2606C712.478 84.6521 712.974 86.288 712.974 87.9615C712.974 90.2057 712.083 92.3579 710.496 93.9449C708.909 95.5316 706.757 96.4231 704.513 96.4231ZM704.513 82.8846C703.509 82.8846 702.527 83.1824 701.692 83.7402C700.857 84.2981 700.207 85.091 699.822 86.0187C699.438 86.9464 699.337 87.9672 699.533 88.952C699.729 89.9368 700.213 90.8414 700.923 91.5515C701.633 92.2616 702.537 92.7451 703.522 92.941C704.507 93.1368 705.528 93.0362 706.456 92.6519C707.383 92.2677 708.176 91.6169 708.734 90.7821C709.292 89.9472 709.59 88.9657 709.59 87.9615C709.59 86.6151 709.055 85.3237 708.103 84.3716C707.15 83.4195 705.859 82.8846 704.513 82.8846Z" fill="#42794A"/>
<path d="M720.308 112.218C719.861 112.212 719.434 112.032 719.118 111.716C718.802 111.4 718.621 110.973 718.616 110.526C718.616 106.126 716.224 103.192 704.513 103.192C692.802 103.192 690.41 106.126 690.41 110.526C690.41 110.974 690.232 111.405 689.915 111.722C689.597 112.04 689.167 112.218 688.718 112.218C688.269 112.218 687.839 112.04 687.522 111.722C687.204 111.405 687.026 110.974 687.026 110.526C687.026 99.8077 699.278 99.8077 704.513 99.8077C709.748 99.8077 722 99.8077 722 110.526C721.994 110.973 721.814 111.4 721.498 111.716C721.182 112.032 720.755 112.212 720.308 112.218Z" fill="#42794A"/>
<path d="M691.696 98.2505H690.974C689.179 98.077 687.526 97.1974 686.379 95.8052C685.232 94.413 684.686 92.6223 684.859 90.8269C685.033 89.0316 685.912 87.3788 687.305 86.232C688.697 85.0853 690.487 84.5385 692.283 84.7121C692.513 84.722 692.739 84.7788 692.946 84.879C693.154 84.9792 693.339 85.1207 693.489 85.2949C693.64 85.4691 693.754 85.6722 693.823 85.8919C693.893 86.1115 693.917 86.3431 693.894 86.5723C693.871 86.8016 693.801 87.0237 693.689 87.2251C693.577 87.4265 693.425 87.6029 693.243 87.7435C693.06 87.8841 692.851 87.9859 692.628 88.0428C692.404 88.0996 692.172 88.1103 691.944 88.0741C691.504 88.0302 691.059 88.0755 690.636 88.2073C690.214 88.3391 689.822 88.5547 689.485 88.8413C689.142 89.1177 688.858 89.4596 688.649 89.847C688.44 90.2344 688.31 90.6595 688.266 91.0977C688.22 91.5413 688.262 91.9899 688.39 92.417C688.519 92.8444 688.731 93.2417 689.014 93.586C689.298 93.9306 689.647 94.2151 690.042 94.4232C690.436 94.6312 690.868 94.7587 691.313 94.7982C692.047 94.8611 692.782 94.6872 693.411 94.3018C693.794 94.0655 694.255 93.9908 694.693 94.0946C695.131 94.1982 695.51 94.4717 695.746 94.8546C695.983 95.2377 696.057 95.6989 695.954 96.1369C695.85 96.5749 695.577 96.9537 695.194 97.19C694.147 97.8574 692.937 98.2243 691.696 98.2505Z" fill="#42794A"/>
<path d="M679.692 110.526C679.245 110.52 678.818 110.34 678.502 110.024C678.186 109.707 678.006 109.28 678 108.833C678 102.741 679.625 98.6795 687.59 98.6795C688.039 98.6795 688.469 98.8578 688.786 99.1752C689.104 99.4925 689.282 99.923 689.282 100.372C689.282 100.821 689.104 101.251 688.786 101.568C688.469 101.886 688.039 102.064 687.59 102.064C682.287 102.064 681.385 103.756 681.385 108.833C681.379 109.28 681.199 109.707 680.882 110.024C680.566 110.34 680.139 110.52 679.692 110.526Z" fill="#42794A"/>
</g>
<path d="M683.266 147.2V157H681.978V149.342L678.772 154.676H678.604L675.398 149.356V157H674.096V147.2H675.566L678.688 152.38L681.796 147.2H683.266ZM691.032 150H692.25V157H691.032V155.796C690.425 156.72 689.543 157.182 688.386 157.182C687.406 157.182 686.57 156.827 685.88 156.118C685.189 155.399 684.844 154.527 684.844 153.5C684.844 152.473 685.189 151.605 685.88 150.896C686.57 150.177 687.406 149.818 688.386 149.818C689.543 149.818 690.425 150.28 691.032 151.204V150ZM688.54 156.006C689.249 156.006 689.842 155.768 690.318 155.292C690.794 154.807 691.032 154.209 691.032 153.5C691.032 152.791 690.794 152.198 690.318 151.722C689.842 151.237 689.249 150.994 688.54 150.994C687.84 150.994 687.252 151.237 686.776 151.722C686.3 152.198 686.062 152.791 686.062 153.5C686.062 154.209 686.3 154.807 686.776 155.292C687.252 155.768 687.84 156.006 688.54 156.006ZM697.581 149.818C698.402 149.818 699.06 150.079 699.555 150.602C700.05 151.115 700.297 151.815 700.297 152.702V157H699.079V152.772C699.079 152.203 698.925 151.764 698.617 151.456C698.309 151.139 697.884 150.98 697.343 150.98C696.736 150.98 696.246 151.171 695.873 151.554C695.5 151.927 695.313 152.506 695.313 153.29V157H694.095V150H695.313V151.008C695.808 150.215 696.564 149.818 697.581 149.818ZM707.793 150H709.011V157H707.793V155.796C707.187 156.72 706.305 157.182 705.147 157.182C704.167 157.182 703.332 156.827 702.641 156.118C701.951 155.399 701.605 154.527 701.605 153.5C701.605 152.473 701.951 151.605 702.641 150.896C703.332 150.177 704.167 149.818 705.147 149.818C706.305 149.818 707.187 150.28 707.793 151.204V150ZM705.301 156.006C706.011 156.006 706.603 155.768 707.079 155.292C707.555 154.807 707.793 154.209 707.793 153.5C707.793 152.791 707.555 152.198 707.079 151.722C706.603 151.237 706.011 150.994 705.301 150.994C704.601 150.994 704.013 151.237 703.537 151.722C703.061 152.198 702.823 152.791 702.823 153.5C702.823 154.209 703.061 154.807 703.537 155.292C704.013 155.768 704.601 156.006 705.301 156.006ZM716.667 150H717.871V156.706C717.871 157.742 717.521 158.545 716.821 159.114C716.121 159.693 715.281 159.982 714.301 159.982C713.517 159.982 712.84 159.833 712.271 159.534C711.701 159.245 711.272 158.825 710.983 158.274L712.047 157.672C712.429 158.456 713.19 158.848 714.329 158.848C715.057 158.848 715.626 158.657 716.037 158.274C716.457 157.891 716.667 157.369 716.667 156.706V155.712C716.051 156.645 715.173 157.112 714.035 157.112C713.036 157.112 712.191 156.757 711.501 156.048C710.81 155.339 710.465 154.475 710.465 153.458C710.465 152.441 710.81 151.582 711.501 150.882C712.191 150.173 713.036 149.818 714.035 149.818C715.183 149.818 716.06 150.28 716.667 151.204V150ZM712.397 155.236C712.873 155.712 713.465 155.95 714.175 155.95C714.884 155.95 715.477 155.712 715.953 155.236C716.429 154.76 716.667 154.167 716.667 153.458C716.667 152.758 716.429 152.17 715.953 151.694C715.477 151.218 714.884 150.98 714.175 150.98C713.465 150.98 712.873 151.218 712.397 151.694C711.921 152.17 711.683 152.758 711.683 153.458C711.683 154.167 711.921 154.76 712.397 155.236ZM720.57 154.06C720.691 154.685 720.976 155.171 721.424 155.516C721.881 155.861 722.441 156.034 723.104 156.034C724.028 156.034 724.7 155.693 725.12 155.012L726.156 155.6C725.475 156.655 724.448 157.182 723.076 157.182C721.965 157.182 721.06 156.837 720.36 156.146C719.669 155.446 719.324 154.564 719.324 153.5C719.324 152.445 719.665 151.568 720.346 150.868C721.027 150.168 721.909 149.818 722.992 149.818C724.019 149.818 724.854 150.182 725.498 150.91C726.151 151.629 726.478 152.497 726.478 153.514C726.478 153.691 726.464 153.873 726.436 154.06H720.57ZM722.992 150.966C722.339 150.966 721.797 151.153 721.368 151.526C720.939 151.89 720.673 152.38 720.57 152.996H725.246C725.143 152.333 724.882 151.829 724.462 151.484C724.042 151.139 723.552 150.966 722.992 150.966ZM689.23 173.182C688.315 173.182 687.531 172.967 686.878 172.538C686.234 172.109 685.781 171.521 685.52 170.774L686.64 170.13C687.022 171.315 687.895 171.908 689.258 171.908C689.93 171.908 690.443 171.773 690.798 171.502C691.152 171.222 691.33 170.853 691.33 170.396C691.33 169.929 691.152 169.579 690.798 169.346C690.443 169.113 689.85 168.865 689.02 168.604C688.609 168.473 688.296 168.371 688.082 168.296C687.867 168.212 687.596 168.091 687.27 167.932C686.952 167.764 686.714 167.596 686.556 167.428C686.397 167.251 686.252 167.022 686.122 166.742C686 166.462 685.94 166.145 685.94 165.79C685.94 164.941 686.238 164.269 686.836 163.774C687.433 163.27 688.161 163.018 689.02 163.018C689.794 163.018 690.466 163.214 691.036 163.606C691.614 163.998 692.048 164.516 692.338 165.16L691.246 165.79C690.826 164.782 690.084 164.278 689.02 164.278C688.488 164.278 688.058 164.409 687.732 164.67C687.405 164.931 687.242 165.286 687.242 165.734C687.242 166.163 687.396 166.49 687.704 166.714C688.012 166.938 688.544 167.171 689.3 167.414C689.57 167.498 689.762 167.559 689.874 167.596C689.986 167.633 690.158 167.699 690.392 167.792C690.634 167.885 690.812 167.96 690.924 168.016C691.036 168.072 691.185 168.151 691.372 168.254C691.568 168.357 691.712 168.455 691.806 168.548C691.899 168.641 692.006 168.758 692.128 168.898C692.258 169.029 692.352 169.164 692.408 169.304C692.464 169.444 692.51 169.607 692.548 169.794C692.594 169.971 692.618 170.163 692.618 170.368C692.618 171.227 692.305 171.913 691.68 172.426C691.054 172.93 690.238 173.182 689.23 173.182ZM697.636 167.176H695.774V170.97C695.774 171.315 695.84 171.563 695.97 171.712C696.11 171.852 696.32 171.927 696.6 171.936C696.88 171.936 697.226 171.927 697.636 171.908V173C696.572 173.14 695.793 173.056 695.298 172.748C694.804 172.431 694.556 171.838 694.556 170.97V167.176H693.17V166H694.556V164.404L695.774 164.04V166H697.636V167.176ZM704.519 166H705.737V173H704.519V171.796C703.912 172.72 703.03 173.182 701.873 173.182C700.893 173.182 700.057 172.827 699.367 172.118C698.676 171.399 698.331 170.527 698.331 169.5C698.331 168.473 698.676 167.605 699.367 166.896C700.057 166.177 700.893 165.818 701.873 165.818C703.03 165.818 703.912 166.28 704.519 167.204V166ZM702.027 172.006C702.736 172.006 703.329 171.768 703.805 171.292C704.281 170.807 704.519 170.209 704.519 169.5C704.519 168.791 704.281 168.198 703.805 167.722C703.329 167.237 702.736 166.994 702.027 166.994C701.327 166.994 700.739 167.237 700.263 167.722C699.787 168.198 699.549 168.791 699.549 169.5C699.549 170.209 699.787 170.807 700.263 171.292C700.739 171.768 701.327 172.006 702.027 172.006ZM714.988 164.054C713.766 163.951 713.154 164.483 713.154 165.65V166H714.988V167.176H713.154V173H711.936V167.176H709.332V173H708.114V167.176H706.994V166H708.114V165.79C708.114 164.847 708.376 164.133 708.898 163.648C709.43 163.163 710.191 162.953 711.18 163.018V164.194C709.948 164.091 709.332 164.623 709.332 165.79V166H711.936V165.65C711.936 164.707 712.198 163.993 712.72 163.508C713.243 163.023 713.999 162.813 714.988 162.878V164.054Z" fill="#252525"/>
<g filter="url(#filter4_d_2535_1013)">
<rect x="770" y="56" width="80" height="80" rx="16" fill="white"/>
<path d="M828.26 111.134L821.902 93.3585C821.456 92.1891 820.457 91.4661 819.308 91.4661C818.16 91.4661 817.182 92.1891 816.693 93.401L810.357 111.134C810.059 111.963 810.484 112.878 811.314 113.175C812.143 113.473 813.057 113.048 813.355 112.218L814.673 108.54H823.922L825.241 112.218C825.475 112.878 826.091 113.282 826.75 113.282C826.92 113.282 827.112 113.26 827.282 113.197C828.111 112.899 828.536 111.985 828.239 111.155L828.26 111.134ZM815.843 105.329L819.33 95.5698L822.817 105.329H815.843ZM810.421 86.6395C805.615 94.2303 801.278 98.823 796.005 101.885C795.749 102.034 795.473 102.097 795.218 102.097C794.665 102.097 794.133 101.821 793.836 101.311C793.389 100.545 793.644 99.5672 794.41 99.142C798.875 96.5479 802.532 92.827 806.636 86.6608H793.262C792.39 86.6608 791.667 85.9379 791.667 85.0661C791.667 84.1943 792.39 83.4714 793.262 83.4714H801.235V79.2614C801.235 78.3896 801.958 77.6667 802.83 77.6667C803.702 77.6667 804.425 78.3896 804.425 79.2614V83.4714H812.398C813.27 83.4714 813.993 84.1943 813.993 85.0661C813.993 85.9379 813.27 86.6608 812.398 86.6608H810.399L810.421 86.6395ZM810.506 102.097C810.229 102.097 809.953 102.034 809.698 101.885C808.316 101.077 806.976 100.184 805.722 99.2483C805.02 98.7167 804.871 97.7174 805.403 97.0157C805.934 96.314 806.934 96.1652 807.635 96.6968C808.783 97.5685 810.038 98.3765 811.314 99.1207C812.079 99.5672 812.334 100.545 811.888 101.311C811.59 101.821 811.059 102.097 810.506 102.097Z" fill="#42794A"/>
</g>
<path d="M789.638 157.182C788.154 157.182 786.927 156.692 785.956 155.712C784.995 154.732 784.514 153.528 784.514 152.1C784.514 150.672 784.995 149.468 785.956 148.488C786.927 147.508 788.154 147.018 789.638 147.018C790.534 147.018 791.356 147.233 792.102 147.662C792.858 148.091 793.446 148.67 793.866 149.398L792.732 150.056C792.452 149.515 792.032 149.085 791.472 148.768C790.922 148.441 790.31 148.278 789.638 148.278C788.509 148.278 787.585 148.642 786.866 149.37C786.157 150.098 785.802 151.008 785.802 152.1C785.802 153.183 786.157 154.088 786.866 154.816C787.585 155.544 788.509 155.908 789.638 155.908C790.31 155.908 790.922 155.749 791.472 155.432C792.032 155.105 792.452 154.676 792.732 154.144L793.866 154.788C793.456 155.516 792.872 156.099 792.116 156.538C791.36 156.967 790.534 157.182 789.638 157.182ZM798.742 149.818C799.563 149.818 800.221 150.079 800.716 150.602C801.211 151.115 801.458 151.815 801.458 152.702V157H800.24V152.772C800.24 152.203 800.086 151.764 799.778 151.456C799.47 151.139 799.045 150.98 798.504 150.98C797.897 150.98 797.407 151.171 797.034 151.554C796.661 151.927 796.474 152.506 796.474 153.29V157H795.256V147.2H796.474V151.008C796.969 150.215 797.725 149.818 798.742 149.818ZM808.954 150H810.172V157H808.954V155.796C808.348 156.72 807.466 157.182 806.308 157.182C805.328 157.182 804.493 156.827 803.802 156.118C803.112 155.399 802.766 154.527 802.766 153.5C802.766 152.473 803.112 151.605 803.802 150.896C804.493 150.177 805.328 149.818 806.308 149.818C807.466 149.818 808.348 150.28 808.954 151.204V150ZM806.462 156.006C807.172 156.006 807.764 155.768 808.24 155.292C808.716 154.807 808.954 154.209 808.954 153.5C808.954 152.791 808.716 152.198 808.24 151.722C807.764 151.237 807.172 150.994 806.462 150.994C805.762 150.994 805.174 151.237 804.698 151.722C804.222 152.198 803.984 152.791 803.984 153.5C803.984 154.209 804.222 154.807 804.698 155.292C805.174 155.768 805.762 156.006 806.462 156.006ZM815.504 149.818C816.325 149.818 816.983 150.079 817.478 150.602C817.972 151.115 818.22 151.815 818.22 152.702V157H817.002V152.772C817.002 152.203 816.848 151.764 816.54 151.456C816.232 151.139 815.807 150.98 815.266 150.98C814.659 150.98 814.169 151.171 813.796 151.554C813.422 151.927 813.236 152.506 813.236 153.29V157H812.018V150H813.236V151.008C813.73 150.215 814.486 149.818 815.504 149.818ZM825.73 150H826.934V156.706C826.934 157.742 826.584 158.545 825.884 159.114C825.184 159.693 824.344 159.982 823.364 159.982C822.58 159.982 821.903 159.833 821.334 159.534C820.765 159.245 820.335 158.825 820.046 158.274L821.11 157.672C821.493 158.456 822.253 158.848 823.392 158.848C824.12 158.848 824.689 158.657 825.1 158.274C825.52 157.891 825.73 157.369 825.73 156.706V155.712C825.114 156.645 824.237 157.112 823.098 157.112C822.099 157.112 821.255 156.757 820.564 156.048C819.873 155.339 819.528 154.475 819.528 153.458C819.528 152.441 819.873 151.582 820.564 150.882C821.255 150.173 822.099 149.818 823.098 149.818C824.246 149.818 825.123 150.28 825.73 151.204V150ZM821.46 155.236C821.936 155.712 822.529 155.95 823.238 155.95C823.947 155.95 824.54 155.712 825.016 155.236C825.492 154.76 825.73 154.167 825.73 153.458C825.73 152.758 825.492 152.17 825.016 151.694C824.54 151.218 823.947 150.98 823.238 150.98C822.529 150.98 821.936 151.218 821.46 151.694C820.984 152.17 820.746 152.758 820.746 153.458C820.746 154.167 820.984 154.76 821.46 155.236ZM829.633 154.06C829.755 154.685 830.039 155.171 830.487 155.516C830.945 155.861 831.505 156.034 832.167 156.034C833.091 156.034 833.763 155.693 834.183 155.012L835.219 155.6C834.538 156.655 833.511 157.182 832.139 157.182C831.029 157.182 830.123 156.837 829.423 156.146C828.733 155.446 828.387 154.564 828.387 153.5C828.387 152.445 828.728 151.568 829.409 150.868C830.091 150.168 830.973 149.818 832.055 149.818C833.082 149.818 833.917 150.182 834.561 150.91C835.215 151.629 835.541 152.497 835.541 153.514C835.541 153.691 835.527 153.873 835.499 154.06H829.633ZM832.055 150.966C831.402 150.966 830.861 151.153 830.431 151.526C830.002 151.89 829.736 152.38 829.633 152.996H834.309C834.207 152.333 833.945 151.829 833.525 151.484C833.105 151.139 832.615 150.966 832.055 150.966ZM779.369 171.768H783.597V173H778.067V163.2H779.369V171.768ZM790.299 166H791.517V173H790.299V171.796C789.692 172.72 788.81 173.182 787.653 173.182C786.673 173.182 785.838 172.827 785.147 172.118C784.456 171.399 784.111 170.527 784.111 169.5C784.111 168.473 784.456 167.605 785.147 166.896C785.838 166.177 786.673 165.818 787.653 165.818C788.81 165.818 789.692 166.28 790.299 167.204V166ZM787.807 172.006C788.516 172.006 789.109 171.768 789.585 171.292C790.061 170.807 790.299 170.209 790.299 169.5C790.299 168.791 790.061 168.198 789.585 167.722C789.109 167.237 788.516 166.994 787.807 166.994C787.107 166.994 786.519 167.237 786.043 167.722C785.567 168.198 785.329 168.791 785.329 169.5C785.329 170.209 785.567 170.807 786.043 171.292C786.519 171.768 787.107 172.006 787.807 172.006ZM796.848 165.818C797.67 165.818 798.328 166.079 798.822 166.602C799.317 167.115 799.564 167.815 799.564 168.702V173H798.346V168.772C798.346 168.203 798.192 167.764 797.884 167.456C797.576 167.139 797.152 166.98 796.61 166.98C796.004 166.98 795.514 167.171 795.14 167.554C794.767 167.927 794.58 168.506 794.58 169.29V173H793.362V166H794.58V167.008C795.075 166.215 795.831 165.818 796.848 165.818ZM807.075 166H808.279V172.706C808.279 173.742 807.929 174.545 807.229 175.114C806.529 175.693 805.689 175.982 804.709 175.982C803.925 175.982 803.248 175.833 802.679 175.534C802.109 175.245 801.68 174.825 801.391 174.274L802.455 173.672C802.837 174.456 803.598 174.848 804.737 174.848C805.465 174.848 806.034 174.657 806.445 174.274C806.865 173.891 807.075 173.369 807.075 172.706V171.712C806.459 172.645 805.581 173.112 804.443 173.112C803.444 173.112 802.599 172.757 801.909 172.048C801.218 171.339 800.873 170.475 800.873 169.458C800.873 168.441 801.218 167.582 801.909 166.882C802.599 166.173 803.444 165.818 804.443 165.818C805.591 165.818 806.468 166.28 807.075 167.204V166ZM802.805 171.236C803.281 171.712 803.873 171.95 804.583 171.95C805.292 171.95 805.885 171.712 806.361 171.236C806.837 170.76 807.075 170.167 807.075 169.458C807.075 168.758 806.837 168.17 806.361 167.694C805.885 167.218 805.292 166.98 804.583 166.98C803.873 166.98 803.281 167.218 802.805 167.694C802.329 168.17 802.091 168.758 802.091 169.458C802.091 170.167 802.329 170.76 802.805 171.236ZM814.954 166H816.172V173H814.954V171.992C814.46 172.785 813.704 173.182 812.686 173.182C811.865 173.182 811.207 172.925 810.712 172.412C810.218 171.889 809.97 171.185 809.97 170.298V166H811.188V170.228C811.188 170.797 811.342 171.241 811.65 171.558C811.958 171.866 812.383 172.02 812.924 172.02C813.531 172.02 814.021 171.833 814.394 171.46C814.768 171.077 814.954 170.494 814.954 169.71V166ZM823.823 166H825.041V173H823.823V171.796C823.216 172.72 822.334 173.182 821.177 173.182C820.197 173.182 819.361 172.827 818.671 172.118C817.98 171.399 817.635 170.527 817.635 169.5C817.635 168.473 817.98 167.605 818.671 166.896C819.361 166.177 820.197 165.818 821.177 165.818C822.334 165.818 823.216 166.28 823.823 167.204V166ZM821.331 172.006C822.04 172.006 822.633 171.768 823.109 171.292C823.585 170.807 823.823 170.209 823.823 169.5C823.823 168.791 823.585 168.198 823.109 167.722C822.633 167.237 822.04 166.994 821.331 166.994C820.631 166.994 820.043 167.237 819.567 167.722C819.091 168.198 818.853 168.791 818.853 169.5C818.853 170.209 819.091 170.807 819.567 171.292C820.043 171.768 820.631 172.006 821.331 172.006ZM832.696 166H833.9V172.706C833.9 173.742 833.55 174.545 832.85 175.114C832.15 175.693 831.31 175.982 830.33 175.982C829.546 175.982 828.869 175.833 828.3 175.534C827.731 175.245 827.301 174.825 827.012 174.274L828.076 173.672C828.459 174.456 829.219 174.848 830.358 174.848C831.086 174.848 831.655 174.657 832.066 174.274C832.486 173.891 832.696 173.369 832.696 172.706V171.712C832.08 172.645 831.203 173.112 830.064 173.112C829.065 173.112 828.221 172.757 827.53 172.048C826.839 171.339 826.494 170.475 826.494 169.458C826.494 168.441 826.839 167.582 827.53 166.882C828.221 166.173 829.065 165.818 830.064 165.818C831.212 165.818 832.089 166.28 832.696 167.204V166ZM828.426 171.236C828.902 171.712 829.495 171.95 830.204 171.95C830.913 171.95 831.506 171.712 831.982 171.236C832.458 170.76 832.696 170.167 832.696 169.458C832.696 168.758 832.458 168.17 831.982 167.694C831.506 167.218 830.913 166.98 830.204 166.98C829.495 166.98 828.902 167.218 828.426 167.694C827.95 168.17 827.712 168.758 827.712 169.458C827.712 170.167 827.95 170.76 828.426 171.236ZM836.599 170.06C836.721 170.685 837.005 171.171 837.453 171.516C837.911 171.861 838.471 172.034 839.133 172.034C840.057 172.034 840.729 171.693 841.149 171.012L842.185 171.6C841.504 172.655 840.477 173.182 839.105 173.182C837.995 173.182 837.089 172.837 836.389 172.146C835.699 171.446 835.353 170.564 835.353 169.5C835.353 168.445 835.694 167.568 836.375 166.868C837.057 166.168 837.939 165.818 839.021 165.818C840.048 165.818 840.883 166.182 841.527 166.91C842.181 167.629 842.507 168.497 842.507 169.514C842.507 169.691 842.493 169.873 842.465 170.06H836.599ZM839.021 166.966C838.368 166.966 837.827 167.153 837.397 167.526C836.968 167.89 836.702 168.38 836.599 168.996H841.275C841.173 168.333 840.911 167.829 840.491 167.484C840.071 167.139 839.581 166.966 839.021 166.966Z" fill="#252525"/>
<defs>
<filter id="filter0_d_2535_1013" x="20" y="36" width="120" height="120" filterUnits="userSpaceOnUse" color-interpolation-filters="sRGB">
<feFlood flood-opacity="0" result="BackgroundImageFix"/>
<feColorMatrix in="SourceAlpha" type="matrix" values="0 0 0 0 0 0 0 0 0 0 0 0 0 0 0 0 0 0 127 0" result="hardAlpha"/>
<feOffset/>
<feGaussianBlur stdDeviation="10"/>
<feComposite in2="hardAlpha" operator="out"/>
<feColorMatrix type="matrix" values="0 0 0 0 0 0 0 0 0 0 0 0 0 0 0 0 0 0 0.05 0"/>
<feBlend mode="normal" in2="BackgroundImageFix" result="effect1_dropShadow_2535_1013"/>
<feBlend mode="normal" in="SourceGraphic" in2="effect1_dropShadow_2535_1013" result="shape"/>
</filter>
<filter id="filter1_d_2535_1013" x="130" y="36" width="120" height="120" filterUnits="userSpaceOnUse" color-interpolation-filters="sRGB">
<feFlood flood-opacity="0" result="BackgroundImageFix"/>
<feColorMatrix in="SourceAlpha" type="matrix" values="0 0 0 0 0 0 0 0 0 0 0 0 0 0 0 0 0 0 127 0" result="hardAlpha"/>
<feOffset/>
<feGaussianBlur stdDeviation="10"/>
<feComposite in2="hardAlpha" operator="out"/>
<feColorMatrix type="matrix" values="0 0 0 0 0 0 0 0 0 0 0 0 0 0 0 0 0 0 0.05 0"/>
<feBlend mode="normal" in2="BackgroundImageFix" result="effect1_dropShadow_2535_1013"/>
<feBlend mode="normal" in="SourceGraphic" in2="effect1_dropShadow_2535_1013" result="shape"/>
</filter>
<filter id="filter2_d_2535_1013" x="530" y="36" width="120" height="120" filterUnits="userSpaceOnUse" color-interpolation-filters="sRGB">
<feFlood flood-opacity="0" result="BackgroundImageFix"/>
<feColorMatrix in="SourceAlpha" type="matrix" values="0 0 0 0 0 0 0 0 0 0 0 0 0 0 0 0 0 0 127 0" result="hardAlpha"/>
<feOffset/>
<feGaussianBlur stdDeviation="10"/>
<feComposite in2="hardAlpha" operator="out"/>
<feColorMatrix type="matrix" values="0 0 0 0 0 0 0 0 0 0 0 0 0 0 0 0 0 0 0.05 0"/>
<feBlend mode="normal" in2="BackgroundImageFix" result="effect1_dropShadow_2535_1013"/>
<feBlend mode="normal" in="SourceGraphic" in2="effect1_dropShadow_2535_1013" result="shape"/>
</filter>
<filter id="filter3_d_2535_1013" x="640" y="36" width="120" height="120" filterUnits="userSpaceOnUse" color-interpolation-filters="sRGB">
<feFlood flood-opacity="0" result="BackgroundImageFix"/>
<feColorMatrix in="SourceAlpha" type="matrix" values="0 0 0 0 0 0 0 0 0 0 0 0 0 0 0 0 0 0 127 0" result="hardAlpha"/>
<feOffset/>
<feGaussianBlur stdDeviation="10"/>
<feComposite in2="hardAlpha" operator="out"/>
<feColorMatrix type="matrix" values="0 0 0 0 0 0 0 0 0 0 0 0 0 0 0 0 0 0 0.05 0"/>
<feBlend mode="normal" in2="BackgroundImageFix" result="effect1_dropShadow_2535_1013"/>
<feBlend mode="normal" in="SourceGraphic" in2="effect1_dropShadow_2535_1013" result="shape"/>
</filter>
<filter id="filter4_d_2535_1013" x="750" y="36" width="120" height="120" filterUnits="userSpaceOnUse" color-interpolation-filters="sRGB">
<feFlood flood-opacity="0" result="BackgroundImageFix"/>
<feColorMatrix in="SourceAlpha" type="matrix" values="0 0 0 0 0 0 0 0 0 0 0 0 0 0 0 0 0 0 127 0" result="hardAlpha"/>
<feOffset/>
<feGaussianBlur stdDeviation="10"/>
<feComposite in2="hardAlpha" operator="out"/>
<feColorMatrix type="matrix" values="0 0 0 0 0 0 0 0 0 0 0 0 0 0 0 0 0 0 0.05 0"/>
<feBlend mode="normal" in2="BackgroundImageFix" result="effect1_dropShadow_2535_1013"/>
<feBlend mode="normal" in="SourceGraphic" in2="effect1_dropShadow_2535_1013" result="shape"/>
</filter>
</defs>
</svg>
