<svg width="44" height="34" viewBox="0 0 44 34" fill="none" xmlns="http://www.w3.org/2000/svg">
<path d="M26.5127 17.4231C24.8392 17.4231 23.2033 16.9269 21.8117 15.997C20.4202 15.0674 19.3358 13.7458 18.6954 12.1996C18.0548 10.6535 17.8874 8.95215 18.2139 7.31077C18.5404 5.66939 19.3462 4.16171 20.5297 2.97833C21.7129 1.79496 23.2206 0.98908 24.862 0.6626C26.5033 0.336097 28.2046 0.503658 29.7509 1.1441C31.297 1.78453 32.6186 2.86907 33.5482 4.26056C34.4781 5.65206 34.9743 7.28801 34.9743 8.96154C34.9743 11.2057 34.0828 13.3579 32.4961 14.9449C30.9091 16.5316 28.757 17.4231 26.5127 17.4231ZM26.5127 3.88462C25.5086 3.88462 24.5271 4.18237 23.6922 4.74023C22.8574 5.2981 22.2066 6.091 21.8224 7.01868C21.4381 7.94638 21.3374 8.96718 21.5333 9.95199C21.7294 10.9368 22.2127 11.8414 22.9228 12.5515C23.6329 13.2616 24.5375 13.7451 25.5222 13.941C26.5071 14.1368 27.5279 14.0362 28.4555 13.6519C29.3834 13.2677 30.1763 12.6169 30.734 11.7821C31.2918 10.9472 31.5897 9.96567 31.5897 8.96154C31.5897 7.61505 31.0547 6.32373 30.1027 5.37161C29.1505 4.4195 27.8591 3.88462 26.5127 3.88462Z" fill="#42794A"/>
<path d="M42.3079 33.2179C41.8609 33.2121 41.4338 33.032 41.1177 32.7159C40.8015 32.3998 40.6215 31.9726 40.6156 31.5256C40.6156 27.1256 38.2238 24.1923 26.5131 24.1923C14.8023 24.1923 12.4105 27.1256 12.4105 31.5256C12.4105 31.9744 12.2322 32.405 11.9148 32.7222C11.5975 33.0397 11.167 33.2179 10.7182 33.2179C10.2694 33.2179 9.83891 33.0397 9.52154 32.7222C9.20418 32.405 9.02588 31.9744 9.02588 31.5256C9.02588 20.8077 21.2782 20.8077 26.5131 20.8077C31.7479 20.8077 44.0002 20.8077 44.0002 31.5256C43.9944 31.9726 43.8143 32.3998 43.4982 32.7159C43.1821 33.032 42.7549 33.2121 42.3079 33.2179Z" fill="#42794A"/>
<path d="M13.6961 19.2505H12.9741C11.1788 19.077 9.52595 18.1974 8.37917 16.8052C7.23242 15.413 6.68567 13.6223 6.85921 11.8269C7.03277 10.0316 7.91239 8.37879 9.30457 7.23202C10.6968 6.08526 12.4875 5.53851 14.2828 5.71205C14.513 5.72196 14.7388 5.77875 14.9462 5.87898C15.1537 5.97919 15.3385 6.12073 15.4894 6.29488C15.6402 6.46906 15.7539 6.6722 15.8235 6.89186C15.893 7.11152 15.917 7.34308 15.8939 7.57233C15.8709 7.80158 15.8012 8.0237 15.6893 8.22509C15.5773 8.42647 15.4254 8.60285 15.2429 8.74347C15.0603 8.88407 14.851 8.98592 14.6277 9.04278C14.4044 9.09965 14.1719 9.1103 13.9443 9.0741C13.5039 9.03019 13.0591 9.07548 12.6365 9.2073C12.2139 9.33912 11.8223 9.55474 11.4849 9.84128C11.1422 10.1177 10.858 10.4596 10.6488 10.847C10.4395 11.2344 10.3096 11.6595 10.2664 12.0977C10.2197 12.5413 10.2618 12.9899 10.3902 13.417C10.5186 13.8444 10.7308 14.2417 11.0143 14.586C11.2978 14.9306 11.647 15.2151 12.0416 15.4232C12.4362 15.6312 12.8682 15.7587 13.3125 15.7982C14.0471 15.8611 14.7825 15.6872 15.411 15.3018C15.794 15.0655 16.2552 14.9908 16.6932 15.0946C17.1312 15.1982 17.5099 15.4717 17.7464 15.8546C17.9829 16.2377 18.0573 16.6989 17.9538 17.1369C17.85 17.5749 17.5765 17.9537 17.1936 18.19C16.147 18.8574 14.9371 19.2243 13.6961 19.2505Z" fill="#42794A"/>
<path d="M1.69231 31.5257C1.24529 31.5198 0.818242 31.3397 0.502119 31.0236C0.186018 30.7075 0.0058441 30.2803 0 29.8334C0 23.741 1.62462 19.6795 9.58974 19.6795C10.0386 19.6795 10.469 19.8578 10.7864 20.1752C11.1037 20.4925 11.2821 20.923 11.2821 21.3718C11.2821 21.8206 11.1037 22.2511 10.7864 22.5684C10.469 22.8859 10.0386 23.0641 9.58974 23.0641C4.28718 23.0641 3.38462 24.7564 3.38462 29.8334C3.37877 30.2803 3.1986 30.7075 2.8825 31.0236C2.56637 31.3397 2.13932 31.5198 1.69231 31.5257Z" fill="#42794A"/>
</svg>
