<svg width="45" height="44" viewBox="0 0 45 44" fill="none" xmlns="http://www.w3.org/2000/svg">
<path d="M4.40332 5.43137L4.88359 5.59145C7.27675 6.38918 8.47334 6.78803 9.15774 7.73762C9.84217 8.68719 9.84217 9.94849 9.84217 12.4711V17.2155C9.84217 22.3433 9.84217 24.9072 11.4352 26.5002C13.0282 28.0932 15.5921 28.0932 20.7199 28.0932H35.2235" stroke="white" stroke-width="1.81295" stroke-linecap="round"/>
<path d="M14.3742 32.6256C15.8761 32.6256 17.0936 33.8432 17.0936 35.345C17.0936 36.8469 15.8761 38.0645 14.3742 38.0645C12.8723 38.0645 11.6548 36.8469 11.6548 35.345C11.6548 33.8432 12.8723 32.6256 14.3742 32.6256Z" stroke="white" stroke-width="1.81295"/>
<path d="M30.6911 32.6256C32.193 32.6256 33.4105 33.843 33.4105 35.345C33.4105 36.8469 32.193 38.0645 30.6911 38.0645C29.1893 38.0645 27.9717 36.8469 27.9717 35.345C27.9717 33.843 29.1893 32.6256 30.6911 32.6256Z" stroke="white" stroke-width="1.81295"/>
<path d="M20.7196 16.3091H15.2808" stroke="white" stroke-width="1.81295" stroke-linecap="round"/>
<path d="M9.8418 10.8702H30.6008C34.3264 10.8702 36.189 10.8702 36.9953 12.0926C37.8013 13.315 37.0674 15.0272 35.5998 18.4516L34.8228 20.2646C34.1377 21.8632 33.795 22.6625 33.1139 23.1118C32.4328 23.5609 31.5631 23.5609 29.8238 23.5609H9.8418" stroke="white" stroke-width="1.81295"/>
</svg>
